<svg width="356" height="84" viewBox="0 0 356 84" fill="none" xmlns="http://www.w3.org/2000/svg">
<path d="M42.4913 42.795V83.9913H42.7707C64.4178 83.9913 82.4077 64.7386 82.8092 42.7861L42.4913 42.795Z" fill="#FFDD00"/>
<path d="M58.4827 69.0629C58.4027 68.9653 58.5538 69.1695 58.4827 69.0629V69.0629Z" fill="white"/>
<path d="M64.6797 74.3646C63.7799 74.2993 62.9198 73.9623 62.2095 73.3966C60.7318 72.1738 59.425 70.7516 58.3252 69.1695L58.4212 68.9564V68.8942L58.6656 69.1784C59.7748 70.601 61.0301 71.8989 62.4102 73.0503C63.0681 73.5783 63.8694 73.8883 64.7059 73.9383C64.9263 73.94 65.1452 73.9009 65.3518 73.8229C65.6097 73.6845 65.8381 73.4956 66.0239 73.267C66.2097 73.0383 66.3491 72.7745 66.4341 72.4908C67.4554 69.7467 66.4341 63.9389 63.8155 58.0335C61.1969 52.128 57.6705 47.4391 54.9908 46.4001C54.6702 46.2615 54.3266 46.1861 53.9783 46.1781C53.7349 46.1777 53.494 46.2291 53.2713 46.329C53.0119 46.4653 52.7823 46.6536 52.5963 46.8825C52.4103 47.1115 52.2717 47.3763 52.1889 47.6611C51.1589 50.4052 52.1889 56.213 54.8075 62.1185C55.3787 63.3483 56.035 64.5354 56.7715 65.6706L57.3039 66.5587H57.4174L57.6094 66.4432L57.6618 66.6652H57.7666L57.8713 66.8606L57.9499 66.9938L58.0982 67.0649L58.1855 67.127L57.9935 67.2069V67.2691V67.3579L57.9324 67.4734V67.5888L57.8102 67.6954V67.8375V67.8907H57.7491H57.6182L57.496 67.944V68.0062V68.1039L57.4174 68.0151L57.3214 68.2992L57.2167 67.9351H57.0857L57.0333 67.873H56.9461L56.8762 67.8197L56.5882 67.7664L56.6929 67.6421L56.3525 67.4911L56.6056 67.4112L56.5358 67.2957L56.6231 67.127V67.0293C55.706 65.5285 54.8867 63.9681 54.1703 62.3582C51.639 56.6215 50.6789 50.5295 51.77 47.5368C51.8747 47.1995 52.0444 46.8867 52.2692 46.6169C52.494 46.347 52.7694 46.1254 53.0793 45.9649C53.3533 45.8387 53.6513 45.775 53.9521 45.7785C54.3437 45.7863 54.7308 45.8645 55.0956 46.0093C57.8888 47.1016 61.5461 51.8527 64.1909 57.847C66.8357 63.8413 67.9006 69.7912 66.8095 72.6329C66.7079 72.9694 66.5402 73.2814 66.3167 73.55C66.0931 73.8187 65.8183 74.0384 65.5089 74.1958C65.2464 74.3079 64.9644 74.3653 64.6797 74.3646Z" fill="#222222"/>
<path d="M51.4993 71.5321C50.8996 71.5558 50.3113 71.3605 49.8408 70.9815C48.6974 70.0046 48.6712 67.8378 49.7623 64.8895C51.1447 61.4846 53.0641 58.3321 55.4447 55.5562C59.5733 50.5565 64.3654 47.0221 67.3768 46.7557H67.7434C68.3419 46.7302 68.9298 46.9222 69.4019 47.2974C70.2747 48.0522 70.5715 49.8105 70.1351 51.7376H70.2922H70.4231L70.1962 52.0484L70.266 52.1017V52.1816V52.2527V52.3415L70.3445 52.6345H70.1874V53.0164L70.039 52.8388L69.9605 52.9009H69.8034H69.6463H69.5241L69.4717 52.8299C69.3946 52.8129 69.3208 52.7829 69.2535 52.7411V52.6523V52.7322L69.0789 52.5723V52.4125H68.9916V52.3237L68.7908 52.1905L68.9654 52.0484V51.9418L69.0876 51.7642H69.1575V51.6221V51.4357L69.3146 51.5511H69.4979C69.8557 49.482 69.9692 48.1499 69.2797 47.5638C68.8833 47.2533 68.3915 47.0959 67.8918 47.1198H67.5688C64.6534 47.3862 59.9661 50.8584 55.9073 55.7782C50.6701 62.1366 48.13 68.788 50.2598 70.6085C50.6562 70.919 51.148 71.0764 51.6477 71.0525H51.9706C54.886 70.795 59.5733 67.3139 63.6322 62.3941C65.8992 59.7865 67.7677 56.8468 69.1749 53.6735L69.3495 53.567H69.428L69.5066 53.6202V53.8067C68.1086 57.0357 66.2367 60.0299 63.9551 62.6872C59.8265 67.6868 55.0257 71.2301 52.0143 71.4966L51.4993 71.5321Z" fill="#222222"/>
<path d="M69.5241 51.7462V51.6397V51.7374V51.6663L69.4456 51.764C69.6292 51.2548 69.7466 50.7234 69.7947 50.1833C69.9242 49.4863 69.9094 48.7694 69.7511 48.0786C69.9314 48.6957 69.9584 49.3487 69.8296 49.979C69.8011 50.5788 69.6985 51.1726 69.5241 51.7462ZM69.7074 51.7462V51.6752C69.8566 51.1393 69.9473 50.5884 69.978 50.0323C70.019 49.5009 69.9897 48.9662 69.8907 48.4427C70.0199 48.9556 70.0671 49.4864 70.0304 50.0145C70.009 50.5593 69.921 51.0992 69.7685 51.6219L69.7074 51.7462ZM69.8558 51.8173V51.7107V51.8262V51.764C69.9454 51.4381 70.0096 51.1055 70.0478 50.7694C70.1111 50.2236 70.1111 49.6722 70.0478 49.1265C70.1156 49.7165 70.1156 50.3126 70.0478 50.9026C69.9082 51.6041 69.8296 51.7818 69.8296 51.7818L69.8558 51.8173Z" fill="#222222"/>
<path d="M68.6949 65.7154C65.2265 65.6355 61.7801 65.1316 58.43 64.2146C56.284 63.7228 54.1907 63.0179 52.1802 62.1099L52.1366 61.8879V61.8169L52.2151 61.7636C54.2544 62.6352 56.3665 63.3188 58.526 63.8061C61.8449 64.715 65.2589 65.2159 68.6949 65.298C70.214 65.4027 71.7355 65.1315 73.1291 64.5076C73.2921 64.4279 73.4374 64.315 73.556 64.1761C73.6745 64.0371 73.7639 63.8749 73.8187 63.6995C74.0631 62.7138 72.8498 61.3906 70.3883 59.9608C67.2556 58.2519 63.9202 56.9596 60.4637 56.1156C57.1633 55.204 53.7663 54.703 50.3472 54.6237H49.9457C47.1088 54.6681 45.4155 55.2365 45.1711 56.2133C44.9267 57.1902 46.5415 58.611 49.8322 60.3871V60.3161H49.8933H50.0766L50.225 60.3782H50.3646V60.4493H50.4519V60.5381L50.5741 60.6091V60.5558H50.6701V60.6713H50.9495L50.6963 60.9111V60.9732V61.0443V61.1331V61.2219L50.7749 61.5238H50.6178V61.8879L50.4694 61.7192L50.3559 61.7991H50.1726H50.0068H49.8846V61.7192C49.805 61.7057 49.7283 61.6787 49.6576 61.6393L49.5965 61.5682H49.5354H49.4656L49.4219 61.4261V61.2752H49.3434V61.1864L49.2736 61.1153V61.0176C46.2883 59.5079 44.4204 57.4654 44.7608 56.0979C45.0663 54.9079 46.8994 54.233 49.9369 54.1797H50.321C53.7843 54.2588 57.2254 54.7658 60.5685 55.6894C64.0621 56.5459 67.4328 57.8562 70.5978 59.5879C73.2164 61.1242 74.5257 62.625 74.2289 63.8061C74.1611 64.0342 74.0489 64.2461 73.899 64.4292C73.749 64.6123 73.5644 64.7628 73.356 64.8717C71.8944 65.5393 70.2932 65.8291 68.6949 65.7154Z" fill="#222222"/>
<path d="M60.7518 59.9963C60.6905 59.9175 60.6146 59.8517 60.5284 59.8027C60.4421 59.7538 60.3472 59.7227 60.2491 59.7111C60.1509 59.6996 60.0515 59.7078 59.9566 59.7354C59.8616 59.763 59.7729 59.8094 59.6956 59.872C59.5555 59.9856 59.4593 60.1459 59.4242 60.3247C59.389 60.5035 59.4172 60.6891 59.5036 60.8488C59.4755 60.6784 59.4936 60.5034 59.5559 60.3426C59.5869 60.2 59.6637 60.0719 59.7742 59.9785C59.8481 59.9179 59.9347 59.8754 60.0273 59.8542C59.8843 59.935 59.7733 60.0636 59.7131 60.2183C59.7691 60.1142 59.8553 60.0302 59.96 59.9778C60.0646 59.9254 60.1826 59.907 60.2979 59.9253C60.2199 59.939 60.1456 59.969 60.0795 60.0133C60.0134 60.0576 59.957 60.1153 59.9138 60.1828C59.9743 60.1302 60.0474 60.0951 60.1257 60.0811C60.204 60.067 60.2845 60.0745 60.359 60.1029C60.4366 60.1498 60.4971 60.221 60.5317 60.3058C60.5663 60.3906 60.5731 60.4845 60.551 60.5735C60.5894 60.5369 60.6165 60.4897 60.6289 60.4376C60.6413 60.3855 60.6385 60.3309 60.6208 60.2805C60.6668 60.4126 60.6668 60.5568 60.6208 60.689C60.6806 60.5942 60.722 60.4887 60.743 60.3782C60.7558 60.4684 60.7491 60.5604 60.7235 60.6478C60.6978 60.7352 60.6539 60.8159 60.5947 60.8843C60.4784 61.0447 60.3171 61.1655 60.132 61.2307C60.301 61.2318 60.4649 61.172 60.5947 61.062C60.754 60.9416 60.86 60.7618 60.8894 60.5621C60.9189 60.3624 60.8694 60.159 60.7518 59.9963Z" fill="#222222"/>
<path d="M59.9574 60.2538C60.0009 60.2149 60.0529 60.1873 60.1092 60.1734C60.1655 60.1595 60.2242 60.1597 60.2804 60.1739C60.3394 60.1939 60.3898 60.2339 60.4232 60.2873C60.4566 60.3407 60.4709 60.4041 60.4637 60.467C60.449 60.4073 60.4196 60.3523 60.3784 60.3073C60.3372 60.2623 60.2855 60.2286 60.228 60.2094C60.1824 60.1962 60.1346 60.1933 60.0878 60.201C60.0411 60.2086 59.9965 60.2267 59.9574 60.2538Z" fill="#222222"/>
<path d="M59.8701 60.6176C59.8701 60.6176 59.8701 60.8308 60.0709 60.8397C60.2717 60.8485 60.2018 60.5732 60.2018 60.5732C60.2018 60.5732 60.2018 60.7864 60.0534 60.7864C59.905 60.7864 59.8701 60.6176 59.8701 60.6176Z" fill="#222222"/>
<path d="M60.1145 60.3869C60.1377 60.3709 60.165 60.3623 60.1931 60.3623C60.2211 60.3623 60.2485 60.3709 60.2716 60.3869C60.3414 60.4491 60.3327 60.5379 60.2716 60.5468C60.2806 60.5402 60.288 60.5315 60.293 60.5215C60.2981 60.5114 60.3007 60.5003 60.3007 60.489C60.3007 60.4778 60.2981 60.4666 60.293 60.4566C60.288 60.4466 60.2806 60.4379 60.2716 60.4313C60.2502 60.4126 60.2251 60.399 60.1979 60.3913C60.1708 60.3836 60.1423 60.3821 60.1145 60.3869Z" fill="#222222"/>
<path d="M58.2553 61.0265C58.1642 60.9106 58.1149 60.7664 58.1156 60.618C58.114 60.5197 58.1349 60.4224 58.1767 60.3338C58.1509 60.502 58.1816 60.6741 58.264 60.8223C58.2202 60.7125 58.2101 60.5918 58.235 60.4761C58.2599 60.3603 58.3187 60.255 58.4037 60.174C58.3714 60.2465 58.3547 60.3252 58.3547 60.4049C58.3547 60.4845 58.3714 60.5632 58.4037 60.6358C58.4037 60.6358 58.4037 60.325 58.6219 60.2361C58.7054 60.2032 58.7971 60.1984 58.8835 60.2224C58.9699 60.2464 59.0465 60.2979 59.102 60.3694C59.0959 60.3162 59.0756 60.2657 59.0433 60.2234C59.0109 60.1811 58.9678 60.1487 58.9187 60.1296C58.9187 60.1296 59.1805 60.1917 59.2591 60.3605C59.2221 60.2505 59.1659 60.1482 59.0932 60.0585C59.1707 60.1071 59.2371 60.1718 59.2883 60.2483C59.3394 60.3248 59.3741 60.4115 59.39 60.5026C59.45 60.6901 59.45 60.8922 59.39 61.0798C59.4919 60.9482 59.5472 60.7855 59.5471 60.618C59.5586 60.5102 59.5475 60.4011 59.5148 60.298C59.482 60.1948 59.4283 60.0997 59.3571 60.0191C59.2859 59.9384 59.1988 59.8739 59.1014 59.8297C59.0041 59.7855 58.8987 59.7627 58.7921 59.7627C58.6855 59.7627 58.5801 59.7855 58.4828 59.8297C58.3855 59.8739 58.2983 59.9384 58.2271 60.0191C58.1559 60.0997 58.1022 60.1948 58.0694 60.298C58.0367 60.4011 58.0257 60.5102 58.0371 60.618C58.0371 60.8005 58.1014 60.977 58.2183 61.1155C58.3352 61.254 58.4969 61.3452 58.6743 61.3728C58.5039 61.3023 58.358 61.1818 58.2553 61.0265Z" fill="#222222"/>
<path d="M58.4823 60.6443C58.4803 60.585 58.4918 60.5261 58.5161 60.4721C58.5403 60.4182 58.5766 60.3707 58.622 60.3335C58.6714 60.2967 58.731 60.2769 58.7922 60.2769C58.8534 60.2769 58.913 60.2967 58.9624 60.3335C58.9104 60.3039 58.8518 60.2884 58.7922 60.2884C58.7326 60.2884 58.674 60.3039 58.622 60.3335C58.5706 60.3649 58.5297 60.4114 58.5048 60.4669C58.4798 60.5223 58.472 60.5842 58.4823 60.6443Z" fill="#222222"/>
<path d="M58.6743 60.4492C58.6743 60.4492 58.4736 60.538 58.5259 60.7156C58.5783 60.8932 58.814 60.7156 58.814 60.7156C58.814 60.7156 58.6132 60.7778 58.5696 60.6535C58.5259 60.5291 58.6743 60.4492 58.6743 60.4492Z" fill="#222222"/>
<path d="M58.6394 60.6002C58.6477 60.574 58.6625 60.5504 58.6824 60.5318C58.7023 60.5131 58.7265 60.5 58.7529 60.4937C58.8489 60.4937 58.9187 60.5469 58.8576 60.6357C58.8588 60.6245 58.8577 60.6132 58.8543 60.6024C58.8509 60.5917 58.8454 60.5818 58.8379 60.5734C58.8305 60.565 58.8214 60.5583 58.8113 60.5537C58.8011 60.5492 58.7901 60.5469 58.7791 60.5469C58.7534 60.5454 58.7277 60.5493 58.7037 60.5585C58.6796 60.5677 58.6577 60.5819 58.6394 60.6002Z" fill="#222222"/>
<path d="M58.9274 58.6109C58.8869 58.4119 58.7704 58.2374 58.6034 58.1258C58.4364 58.0142 58.2327 57.9747 58.0371 58.0159C57.8415 58.0571 57.67 58.1757 57.5603 58.3456C57.4506 58.5155 57.4118 58.7227 57.4523 58.9217C57.4875 59.1003 57.5843 59.2601 57.7251 59.3725C57.866 59.4848 58.0416 59.5423 58.2204 59.5345C58.0603 59.4844 57.9159 59.3925 57.8014 59.2681C57.6855 59.1781 57.605 59.049 57.5745 58.904C57.5638 58.8049 57.5758 58.7046 57.6094 58.6109C57.6149 58.7778 57.6765 58.9377 57.784 59.0638C57.7183 58.9673 57.6831 58.8527 57.6831 58.7352C57.6831 58.6178 57.7183 58.5032 57.784 58.4067C57.7597 58.483 57.7518 58.5637 57.7608 58.6434C57.7698 58.723 57.7956 58.7998 57.8364 58.8685C57.8195 58.7892 57.8227 58.7069 57.8456 58.6293C57.8685 58.5516 57.9104 58.4811 57.9673 58.4244C58.0393 58.3703 58.1265 58.3412 58.2161 58.3412C58.3056 58.3412 58.3928 58.3703 58.4648 58.4244C58.4499 58.3729 58.4204 58.3269 58.3801 58.2922C58.3398 58.2575 58.2903 58.2355 58.2379 58.2291C58.3803 58.2269 58.518 58.281 58.6219 58.38C58.5617 58.2814 58.4848 58.1942 58.395 58.1225C58.4805 58.1524 58.5589 58.2003 58.625 58.2631C58.6912 58.3258 58.7437 58.4019 58.7791 58.4866C58.8723 58.6599 58.9061 58.8599 58.8751 59.0549C58.9357 58.9156 58.9539 58.7609 58.9274 58.6109Z" fill="#222222"/>
<path d="M58.3165 58.4243C58.2728 58.3938 58.2211 58.3774 58.1681 58.3774C58.1151 58.3774 58.0633 58.3938 58.0197 58.4243C57.9695 58.4537 57.9283 58.4966 57.9006 58.5484C57.8728 58.6001 57.8597 58.6586 57.8626 58.7174C57.8919 58.6241 57.9463 58.541 58.0197 58.4776C58.11 58.4267 58.2145 58.4079 58.3165 58.4243Z" fill="#222222"/>
<path d="M57.9585 59.1615C57.8813 59.0801 57.8166 58.9873 57.7665 58.8862C57.769 58.9461 57.7885 59.0039 57.8226 59.0527C57.8566 59.1016 57.9038 59.1393 57.9585 59.1615Z" fill="#222222"/>
<path d="M57.9424 58.8507C57.9265 58.7836 57.9265 58.7136 57.9424 58.6465C57.8911 58.7155 57.8659 58.8004 57.8713 58.8863C57.8838 58.9711 57.9245 59.0493 57.9869 59.1083C57.9556 59.0261 57.9405 58.9386 57.9424 58.8507Z" fill="#222222"/>
<path d="M58.1418 58.6108C58.2157 58.5665 58.3006 58.545 58.3862 58.5486C58.3447 58.531 58.3002 58.522 58.2553 58.522C58.2104 58.522 58.1659 58.531 58.1244 58.5486C58.0022 58.6197 58.0284 58.8061 58.0284 58.8061C58.0464 58.731 58.0858 58.663 58.1418 58.6108Z" fill="#222222"/>
<path d="M58.7195 58.6111C58.7083 58.547 58.6772 58.4879 58.6306 58.4424C58.6586 58.4937 58.6823 58.5471 58.7017 58.6022C58.7072 58.6672 58.7072 58.7326 58.7017 58.7976C58.7238 58.7381 58.73 58.6738 58.7195 58.6111Z" fill="#222222"/>
<path d="M58.4823 59.8631C58.4383 59.6697 58.3236 59.5006 58.1614 59.3901C57.9993 59.2796 57.8019 59.236 57.6094 59.2682C57.4321 59.3168 57.2781 59.4291 57.1759 59.5844C57.0738 59.7397 57.0304 59.9274 57.0538 60.1127C57.0773 60.298 57.1659 60.4684 57.3034 60.5924C57.4408 60.7163 57.6178 60.7853 57.8014 60.7867C57.6736 60.7661 57.553 60.7129 57.4507 60.6322C57.3485 60.5515 57.2679 60.4458 57.2166 60.3249C57.1896 60.2683 57.1691 60.2087 57.1555 60.1473C57.129 60.0575 57.129 59.9618 57.1555 59.872C57.1629 60.0358 57.2244 60.1922 57.3301 60.316C57.2644 60.2195 57.2292 60.1049 57.2292 59.9875C57.2292 59.8701 57.2644 59.7554 57.3301 59.6589C57.3059 59.7337 57.2981 59.813 57.3071 59.8912C57.3162 59.9694 57.3419 60.0447 57.3824 60.1118C57.3655 60.0339 57.3686 59.9529 57.3916 59.8767C57.4145 59.8004 57.4565 59.7315 57.5134 59.6766C57.5848 59.6212 57.6722 59.5912 57.7621 59.5912C57.852 59.5912 57.9394 59.6212 58.0109 59.6766C57.998 59.6247 57.9705 59.5777 57.9317 59.5414C57.893 59.5051 57.8446 59.4811 57.7927 59.4724C57.8606 59.4712 57.9281 59.484 57.9911 59.51C58.0541 59.5359 58.1113 59.5745 58.1593 59.6234C58.1047 59.5256 58.0304 59.4409 57.9411 59.3747C58.0268 59.4016 58.1056 59.4474 58.172 59.5088C58.2384 59.5702 58.2907 59.6457 58.3251 59.7299C58.4174 59.9069 58.454 60.1084 58.4299 60.3072C58.489 60.1674 58.5072 60.0132 58.4823 59.8631Z" fill="#222222"/>
<path d="M57.8364 59.7476C57.7889 59.7063 57.7286 59.6836 57.6662 59.6836C57.6037 59.6836 57.5434 59.7063 57.496 59.7476C57.4578 59.79 57.4306 59.8415 57.4169 59.8973C57.4032 59.9531 57.4034 60.0115 57.4174 60.0672C57.4128 60.0191 57.4183 59.9705 57.4333 59.9246C57.4483 59.8787 57.4726 59.8366 57.5047 59.8008C57.5515 59.765 57.6062 59.7414 57.664 59.7322C57.7218 59.7229 57.781 59.7282 57.8364 59.7476Z" fill="#222222"/>
<path d="M57.4106 60.3868C57.3681 60.3257 57.3323 60.2602 57.304 60.1914C57.3203 60.2653 57.3573 60.3331 57.4106 60.3868Z" fill="white"/>
<path d="M61.1009 59.0548C61.0821 58.9574 61.0446 58.8647 60.9905 58.782C60.9364 58.6993 60.8669 58.6283 60.7858 58.5731C60.7047 58.5178 60.6137 58.4793 60.518 58.4599C60.4223 58.4405 60.3237 58.4405 60.228 58.4598C60.1014 58.4861 59.9839 58.5459 59.8873 58.6332C59.7907 58.7206 59.7186 58.8323 59.6781 58.9571C59.7485 58.9945 59.8108 59.0458 59.8614 59.1081C59.8656 59.0124 59.9026 58.9213 59.9661 58.8506C59.9418 58.9269 59.9339 59.0076 59.943 59.0873C59.952 59.1669 59.9778 59.2437 60.0185 59.3124C60.0017 59.2331 60.0048 59.1508 60.0277 59.0732C60.0506 58.9955 60.0925 58.925 60.1495 58.8683C60.2215 58.8142 60.3087 58.7851 60.3982 58.7851C60.4878 58.7851 60.5749 58.8142 60.647 58.8683C60.6317 58.8185 60.6033 58.774 60.5648 58.7395C60.5263 58.705 60.4793 58.682 60.4288 58.673C60.4967 58.6718 60.5642 58.6846 60.6272 58.7105C60.6901 58.7365 60.7473 58.775 60.7954 58.8239C60.7408 58.7262 60.6664 58.6414 60.5772 58.5753C60.664 58.6025 60.7437 58.6495 60.8102 58.7125C60.8767 58.7756 60.9284 58.8531 60.9612 58.9394C61.0528 59.1134 61.0893 59.3118 61.066 59.5077C61.1266 59.3649 61.1389 59.2055 61.1009 59.0548Z" fill="#222222"/>
<path d="M59.0583 59.1705C59.1323 59.1169 59.2207 59.0882 59.3115 59.0882C59.4022 59.0882 59.4907 59.1169 59.5646 59.1705C59.5416 59.1208 59.5061 59.0781 59.4616 59.0469C59.4171 59.0157 59.3653 58.9971 59.3115 58.9929C59.4509 58.977 59.5911 59.015 59.7043 59.0994C59.6347 59.0095 59.5488 58.9342 59.4511 58.8774C59.5599 58.8986 59.6614 58.9482 59.7456 59.0214C59.8298 59.0946 59.8937 59.1888 59.9312 59.2948C59.9598 59.3862 59.9683 59.4829 59.9563 59.578C59.9442 59.6731 59.9118 59.7644 59.8614 59.8454C59.9164 59.8183 59.9754 59.8003 60.036 59.7921C60.0903 59.666 60.1092 59.5271 60.0907 59.3908C60.0723 59.2544 60.017 59.1259 59.9312 59.0195C59.8707 58.9397 59.7951 58.873 59.7088 58.8233C59.6225 58.7737 59.5274 58.7422 59.4289 58.7306C59.3305 58.719 59.2307 58.7276 59.1356 58.7559C59.0405 58.7841 58.9519 58.8315 58.875 58.8952C58.7459 58.9968 58.6524 59.1381 58.6083 59.298C58.5643 59.458 58.5721 59.6282 58.6306 59.7832C58.6125 59.6536 58.6125 59.5221 58.6306 59.3925C58.6083 59.5068 58.6083 59.6245 58.6306 59.7388C58.6187 59.6475 58.6187 59.5549 58.6306 59.4635C58.6363 59.5669 58.6662 59.6674 58.7179 59.7566V59.5168C58.7042 59.4081 58.7289 59.2979 58.7878 59.206C58.7736 59.284 58.7764 59.3641 58.796 59.4408C58.8156 59.5176 58.8515 59.589 58.9012 59.65C58.8776 59.5633 58.8799 59.4713 58.9079 59.3859C58.9359 59.3005 58.9883 59.2255 59.0583 59.1705Z" fill="#222222"/>
<path d="M58.2553 11.0562C50.993 11.6334 46.6025 17.4767 46.297 18.5424C46.127 19.2605 46.1665 20.0135 46.4105 20.7092C45.1353 20.4472 43.8354 20.331 42.5349 20.3629V21.5173C44.5458 21.3994 46.5577 21.731 48.4291 22.4889C50.3006 23.2468 51.9861 24.4126 53.3672 25.9043C50.237 23.6045 46.3658 22.5985 42.5349 23.0892V34.3318C43.1727 35.5889 43.4737 36.9948 43.4078 38.4079C44.3606 39.7754 45.748 40.7665 47.3357 41.2141H48.8807C51.5517 36.7117 58.9099 38.55 58.9099 38.55C58.9248 39.4706 58.7306 40.3823 58.3426 41.2141H59.5646C59.7554 40.6919 59.9769 40.1818 60.228 39.6867C60.228 39.6867 61.6159 39.0118 61.8603 38.1948C62.1047 37.3778 61.7293 35.8326 60.7866 35.5839C59.8439 35.3353 53.9346 37.6531 47.9554 36.099C48.5435 35.4875 49.2454 35.0013 50.0203 34.6689C50.7951 34.3365 51.6273 34.1645 52.4682 34.1631C52.4682 34.1631 59.3638 31.863 54.2139 26.2506C54.2139 26.2506 55.0868 16.34 65.7096 17.9296C64.7673 18.5765 63.9964 19.4497 63.465 20.4721C62.9337 21.4944 62.6583 22.6343 62.6633 23.7907C62.7735 25.0684 63.3421 26.2601 64.2606 27.1386C64.8136 27.2954 65.4018 27.263 65.9349 27.0464C66.468 26.8298 66.9163 26.441 67.2109 25.9398C67.2626 26.3866 67.1822 26.8389 66.9801 27.2391C66.778 27.6392 66.4633 27.9691 66.0762 28.1865C66.4046 29.3414 66.4555 30.5596 66.2246 31.7387C66.2246 31.7387 65.3517 32.7155 65.4128 33.3549C65.4739 33.9943 66.2857 34.3939 66.2857 34.3939C66.3406 33.5049 66.5412 32.6315 66.8793 31.8097C67.274 32.5275 67.4157 33.361 67.2808 34.1719C67.6638 34.3647 68.0968 34.4299 68.5183 34.3582C68.9397 34.2864 69.3283 34.0815 69.6288 33.7723C69.6171 33.4707 69.7092 33.1744 69.8893 32.9344C70.0693 32.6945 70.3261 32.526 70.6151 32.458C71.1605 31.2762 71.5057 30.0092 71.6364 28.7105C71.811 26.6502 71.1825 24.883 71.7673 22.1922C71.6867 20.3072 71.0067 18.4997 69.8296 17.0416C71.1317 16.5375 72.1982 15.5509 72.8148 14.2798L72.4482 13.8535C71.7684 14.768 70.8258 15.4446 69.751 15.7894C69.6759 15.3368 69.776 14.8721 70.0303 14.4929C66.6691 11.883 62.4653 10.6561 58.2553 11.0562ZM70.9294 22.4498C70.5705 23.6019 70.5432 24.8345 70.8508 26.0019C70.466 25.2445 69.8048 24.6707 69.0091 24.4035C69.123 23.9303 69.3622 23.498 69.7008 23.1536C70.0394 22.8091 70.4643 22.5657 70.9294 22.4498ZM68.9567 14.5284C68.013 14.8579 67.0215 15.023 66.0238 15.0168C64.7756 14.9103 61.1445 12.8411 56.0382 13.9334C50.9319 15.0257 47.4492 19.9455 47.4492 19.9455C48.3943 18.1166 49.7113 16.5134 51.3126 15.2426C52.914 13.9717 54.7629 13.0622 56.7365 12.5747C60.9097 11.7885 65.2217 12.4779 68.9567 14.5284Z" fill="#DD052B"/>
<path d="M57.8801 41.2139C58.3988 40.4087 58.7439 39.5007 58.8926 38.5498C54.9298 38.5942 53.4633 40.3259 50.0504 41.2139H57.8801Z" fill="#DD052B"/>
<path d="M47.327 12.6901C43.9926 11.9797 44.8567 8.06343 44.8567 8.06343C47.1524 11.3758 50.9668 6.92674 54.7813 9.20901C49.8757 7.73486 47.6848 14.04 44.8567 8.06343C44.9353 12.4592 49.2211 12.7612 49.2211 12.7612C48.5932 12.838 47.9574 12.8171 47.3357 12.699C44.5251 13.294 44.0275 16.633 42.5175 17.3879V18.5779C42.7754 18.5692 43.0323 18.5395 43.2856 18.4891C45.1273 16.4288 50.5304 11.0561 57.2515 10.399C65.6223 9.58199 69.9867 14.4929 69.9867 14.4929C69.6402 13.4121 69.0513 12.4283 68.2665 11.6191C67.4818 10.8099 66.5227 10.1976 65.4652 9.83064C61.9737 8.80051 54.79 11.0561 54.6853 4.69775C53.568 8.31208 56.0469 10.026 56.0469 10.026C52.3896 8.48081 54.6853 4.69775 54.6853 4.69775C56.6056 9.13796 62.8815 7.28195 66.3468 9.13796C67.3392 9.65699 68.1934 10.4127 68.8364 11.3406C69.4793 12.2684 69.892 13.3409 70.039 14.4662C70.4442 14.4758 70.847 14.4021 71.2235 14.2495C71.6 14.0969 71.9423 13.8686 72.2299 13.5782C68.5483 9.31711 64.0171 5.90243 58.9376 3.56125C53.8582 1.22008 48.347 0.0060751 42.7706 0L42.5175 0V15.6917C43.7307 14.6083 44.5949 12.7345 47.327 12.6901Z" fill="#DD052B"/>
<path d="M61.9737 23.6751C60.7154 23.5503 59.4534 23.8733 58.4029 24.589C57.3524 25.3047 56.5784 26.369 56.2128 27.6003C56.2128 27.6003 59.1456 30.2644 56.4746 34.5536C59.5995 35.122 60.839 34.3672 61.8166 34.7757C62.7942 35.1842 63.0648 37.2444 62.7767 38.1946C62.2659 39.2419 61.6826 40.2509 61.031 41.214H82.8528C82.6846 31.7721 79.4394 22.6543 73.6265 15.292C73.23 16.2469 72.584 17.0731 71.7586 17.6808C72.3242 19.0586 72.6349 20.5308 72.6751 22.0234C72.0204 24.6875 72.291 27.3516 72.003 29.554C71.8304 30.8737 71.4595 32.1586 70.9032 33.3637C70.6486 33.372 70.4052 33.4722 70.2166 33.6462C70.0279 33.8203 69.9062 34.0569 69.8732 34.3139C69.3941 34.6987 68.841 34.977 68.2496 35.1309C67.7749 35.1899 67.2937 35.1001 66.8705 34.8733C66.8068 34.6152 66.7803 34.3489 66.792 34.083C66.6712 34.3238 66.4981 34.5333 66.2857 34.6957C66.2857 34.6957 64.9764 34.2517 64.8455 33.5502C64.7145 32.8486 65.7794 31.7119 65.7794 31.7119C65.5915 30.104 65.0931 28.5498 64.313 27.1385C63.6838 26.7878 63.1444 26.2917 62.7381 25.6902C62.3318 25.0886 62.0699 24.3984 61.9737 23.6751Z" fill="#DD052B"/>
<path d="M30.6116 52.3058L30.6821 52.3502C30.6575 52.3378 30.6363 52.3195 30.6204 52.2969L30.6116 52.3058Z" fill="#56AF31"/>
<path d="M30.8035 52.3945H30.8734C30.8147 52.3719 30.759 52.3421 30.7075 52.3057L30.8035 52.3945Z" fill="#56AF31"/>
<path d="M30.3846 52.2612C30.3846 52.3234 30.4637 52.3412 30.5515 52.3145C30.5229 52.3204 30.4932 52.3186 30.4654 52.3093C30.4377 52.2999 30.4129 52.2833 30.3934 52.2612H30.3846Z" fill="#56AF31"/>
<path d="M30.5511 52.2349H30.4545C30.4793 52.2461 30.5063 52.252 30.5335 52.252C30.5608 52.252 30.5877 52.2461 30.6126 52.2349H30.5511Z" fill="#56AF31"/>
<path d="M31.6765 52.3945C31.6252 52.4336 31.5695 52.4664 31.5106 52.4922C31.5777 52.4798 31.639 52.4455 31.6852 52.3945H31.6765Z" fill="#56AF31"/>
<path d="M29.9045 51.6929V51.7906C29.9264 51.8242 29.9534 51.8541 29.9845 51.8794C29.959 51.8588 29.9404 51.8309 29.9312 51.7994L29.9045 51.6929Z" fill="#56AF31"/>
<path d="M29.9046 51.7376C29.8996 51.7142 29.8996 51.69 29.9046 51.6666C29.9007 51.649 29.9007 51.6308 29.9046 51.6133C29.8962 51.6543 29.8962 51.6966 29.9046 51.7376Z" fill="#56AF31"/>
<path d="M21.3155 50.45C18.9936 50.2191 16.9511 50.0859 15.0133 50.0415C15.1028 51.0246 15.044 52.0159 14.8388 52.9809C14.7515 53.345 14.6467 53.718 14.5245 54.091C17.5301 53.7931 20.5547 53.7486 23.5675 53.9578C25.2521 54.0643 26.8844 54.1975 28.4555 54.3307H28.3944C28.1363 54.2681 27.8826 54.188 27.635 54.091C27.5215 54.0221 27.3919 53.9853 27.2597 53.9844C27.105 53.9714 26.9525 53.9386 26.8058 53.8867C26.6225 53.8334 26.413 53.7802 26.1861 53.7358C25.8444 53.6612 25.5089 53.5603 25.1823 53.4338C24.83 53.3158 24.4907 53.1611 24.1697 52.972C24.0074 52.8504 23.8279 52.7546 23.6373 52.6879C23.6125 52.6871 23.5881 52.6812 23.5656 52.6705C23.5431 52.6598 23.5229 52.6446 23.5064 52.6257C23.5064 52.6257 23.3929 52.6257 23.262 52.7145C23.1399 52.7944 22.9968 52.8347 22.8517 52.83C22.7079 52.8337 22.566 52.8638 22.4327 52.9188C22.2931 52.972 22.101 53.052 21.8566 53.1319C21.7519 53.1941 21.6821 53.2118 21.6384 53.1319C21.6179 53.1168 21.6016 53.0967 21.5909 53.0734C21.5802 53.0501 21.5755 53.0243 21.5773 52.9987C21.5783 52.9622 21.5875 52.9265 21.6041 52.8941C21.6208 52.8618 21.6444 52.8338 21.6733 52.8122C21.8131 52.701 21.9734 52.6195 22.1447 52.5724L22.2931 52.4747C22.1932 52.4471 22.0966 52.4084 22.005 52.3593C21.9534 52.3296 21.8974 52.3086 21.8392 52.2971C21.7418 52.2627 21.6482 52.2181 21.5599 52.1639C21.4759 52.1764 21.3907 52.1764 21.3067 52.1639C21.1963 52.1564 21.0874 52.1325 20.9838 52.0929C20.8518 52.0794 20.7224 52.0465 20.5997 51.9952C20.5007 51.9929 20.403 51.9718 20.3117 51.933C20.2717 51.9181 20.2359 51.8937 20.2069 51.862C20.2028 51.8522 20.2007 51.8416 20.2007 51.8309C20.2007 51.8202 20.2028 51.8097 20.2069 51.7998C20.2023 51.7917 20.1999 51.7825 20.1999 51.7732C20.1999 51.7638 20.2023 51.7546 20.2069 51.7465H20.3553C20.3553 51.7465 20.3553 51.6933 20.3553 51.6844C20.3553 51.6755 20.4251 51.6844 20.5473 51.6844L20.7306 51.7377C20.6664 51.7154 20.6048 51.6856 20.5473 51.6489C20.5047 51.6233 20.4734 51.5819 20.4601 51.5334C20.4478 51.5118 20.4413 51.4873 20.4413 51.4624C20.4413 51.4374 20.4478 51.4129 20.4601 51.3913C20.4164 51.3913 20.399 51.3025 20.4164 51.267V51.2226C20.4164 51.2226 20.4601 51.2226 20.5212 51.2226C20.5644 51.2336 20.6057 51.2516 20.6434 51.2759L20.8005 51.3292L21.0012 51.4002L21.6297 51.6045H21.8305C21.9566 51.6076 22.0823 51.6224 22.2058 51.6489C22.3417 51.6712 22.4802 51.6712 22.616 51.6489C22.7754 51.6274 22.9368 51.6274 23.0961 51.6489L23.7159 51.7199C23.9341 51.7199 24.2658 51.8176 24.7284 51.9153C25.1152 52.0054 25.51 52.056 25.9068 52.0662C26.2662 52.0727 26.6224 52.1356 26.9629 52.2527C27.2666 52.3607 27.5792 52.4409 27.8969 52.4925C28.1762 52.5458 28.4817 52.6079 28.7698 52.6879C29.1336 52.77 29.5085 52.7881 29.8783 52.7412C30.2032 52.7043 30.5311 52.7043 30.8559 52.7412C30.9963 52.7772 31.1433 52.7772 31.2836 52.7412L31.6241 52.6879C31.6763 52.6699 31.7245 52.6416 31.7659 52.6046C31.8073 52.5676 31.8412 52.5226 31.8655 52.4723C31.8898 52.422 31.9041 52.3673 31.9076 52.3113C31.9111 52.2553 31.9038 52.1992 31.8859 52.1462L31.8074 52.2261C31.7747 52.2619 31.7321 52.2867 31.6852 52.2971C31.6501 52.3247 31.6073 52.3403 31.563 52.3415C31.4729 52.4042 31.3666 52.4382 31.2575 52.4392C31.1716 52.4618 31.0815 52.4618 30.9956 52.4392C30.9292 52.451 30.8612 52.451 30.7948 52.4392H30.7337L30.7512 52.3948L30.5941 52.306C30.5665 52.3182 30.5368 52.3245 30.5068 52.3245C30.4767 52.3245 30.447 52.3182 30.4195 52.306C30.3866 52.2833 30.3596 52.2529 30.3409 52.2172C30.2719 52.2081 30.2073 52.1777 30.1558 52.13C30.1043 52.0824 30.0684 52.0198 30.0529 51.9508C30.0088 51.9148 29.973 51.8693 29.9481 51.8176C29.8978 51.7488 29.8759 51.6628 29.887 51.5778C27.1637 51.1604 24.2221 50.7431 21.3155 50.45Z" fill="#56AF31"/>
<path d="M30.0703 52.0039C30.0964 52.0601 30.1361 52.109 30.1859 52.146C30.1599 52.1105 30.139 52.0717 30.1236 52.0305L30.0703 52.0039Z" fill="#56AF31"/>
<path d="M31.5892 52.439C31.5194 52.4692 31.4461 52.4901 31.371 52.5011H31.4233C31.4812 52.4883 31.537 52.4674 31.5892 52.439Z" fill="#56AF31"/>
<path d="M7.9606 60.3871C8.78496 58.5941 9.7451 56.8691 10.8323 55.2275C8.0828 55.7248 5.52529 56.4086 2.86304 57.1546C3.41071 58.6169 4.03424 60.0487 4.73098 61.4438C5.84825 61.0265 6.92188 60.6712 7.9606 60.3871Z" fill="#56AF31"/>
<path d="M30.3147 52.199C30.247 52.1736 30.1868 52.1308 30.1401 52.0747C30.1594 52.1064 30.1849 52.1337 30.2149 52.1551C30.2449 52.1765 30.2789 52.1914 30.3147 52.199Z" fill="#56AF31"/>
<path d="M35.8575 53.025C35.8629 53.3617 35.9662 53.6892 36.1543 53.9663C36.3809 54.321 36.549 54.7109 36.6519 55.1208C36.6519 55.1208 36.6519 55.1829 36.6519 55.2185C38.3976 55.4316 39.7331 55.627 40.6671 55.769V53.6999C39.7942 53.5045 38.1619 53.1493 36.0496 52.7319C35.9977 52.8373 35.9332 52.9357 35.8575 53.025Z" fill="#56AF31"/>
<path d="M14.2627 54.6945C13.8647 55.6733 13.3735 56.6102 12.7963 57.4918L13.4596 59.0459C17.1288 58.4619 20.8406 58.2004 24.5538 58.2644C26.4305 58.2644 28.2111 58.2644 29.8783 58.3266L29.9394 58.2644C30.1038 58.0681 30.2984 57.9001 30.5155 57.7671C30.7064 57.6325 30.9192 57.5333 31.144 57.474C31.2733 57.4584 31.4016 57.4347 31.528 57.403C31.6328 57.403 31.659 57.3142 31.5979 57.252C31.5346 57.19 31.4816 57.118 31.4408 57.0389L31.3186 56.7814C31.293 56.7273 31.2798 56.6682 31.2798 56.6082C31.2798 56.5482 31.293 56.4891 31.3186 56.435C31.3003 56.432 31.2828 56.4251 31.2673 56.4147C31.2519 56.4043 31.2387 56.3906 31.2288 56.3747C31.2189 56.3587 31.2125 56.3408 31.2099 56.3221C31.2073 56.3034 31.2086 56.2844 31.2138 56.2663C31.2138 56.1686 31.2138 56.1065 31.1527 56.0798C31.0916 56.0532 31.0654 55.9999 31.0654 55.9466C31.0854 55.8891 31.0854 55.8265 31.0654 55.769C31.0588 55.7249 31.0588 55.6799 31.0654 55.6358C31.0815 55.5929 31.0815 55.5455 31.0654 55.5026C31.0291 55.4666 31.0047 55.4201 30.9956 55.3694C30.9867 55.2874 30.9599 55.2085 30.917 55.1385C28.6563 54.9076 26.1948 54.6945 23.6286 54.5346C20.5081 54.3079 17.374 54.3614 14.2627 54.6945Z" fill="#56AF31"/>
<path d="M11.5481 65.1556C11.5438 65.0965 11.5438 65.0371 11.5481 64.978C11.6318 64.496 11.7848 64.0293 12.002 63.5926C12.237 63.1565 12.5308 62.7559 12.8749 62.4026C13.2116 62.0441 13.6037 61.7441 14.0358 61.5146L13.2415 59.6675C12.4646 59.8096 11.714 59.9694 10.972 60.147C10.4483 61.0065 10.0097 61.9168 9.66273 62.8644C9.29804 63.8365 9.11738 64.87 9.13028 65.9104C9.93332 65.644 10.7451 65.3954 11.5481 65.1556Z" fill="#56AF31"/>
<path d="M11.1117 53.4868C11.1931 53.7909 11.2981 54.0878 11.4259 54.3749C12.3019 53.0512 12.9731 51.5986 13.4161 50.0679C12.421 50.0679 11.4608 50.0679 10.5269 50.1478C10.5778 50.9667 10.6917 51.7802 10.8673 52.581C10.9371 52.8652 11.0244 53.1849 11.1117 53.4868Z" fill="#56AF31"/>
<path d="M15.4148 64.7383C14.6118 64.9248 13.8 65.129 12.9883 65.3421C12.9455 65.4519 12.9105 65.5647 12.8835 65.6796C12.8137 66.0013 12.8137 66.3347 12.8835 66.6564C12.9988 67.1472 13.2408 67.5978 13.5845 67.9616C13.9282 68.3254 14.3613 68.5891 14.8388 68.7256C14.1023 68.8096 13.3598 68.6341 12.7351 68.2283C12.1434 67.8081 11.7338 67.1719 11.5917 66.4522C11.5478 66.2387 11.5215 66.0219 11.5131 65.8039C10.7363 66.0348 9.95941 66.2746 9.17383 66.541C9.17383 66.7275 9.17383 66.9229 9.25239 67.1005C9.39753 67.7878 9.6962 68.432 10.1253 68.9831C10.5332 69.5224 11.0438 69.9724 11.6266 70.3063C11.9031 70.47 12.1957 70.6039 12.4995 70.7059C14.1317 70.1553 15.7465 69.6669 17.3439 69.2229L15.4148 64.7383Z" fill="#56AF31"/>
<path d="M13.5557 49.4461C13.717 48.6882 13.717 47.904 13.5557 47.1461C13.3964 46.297 12.9171 45.5448 12.2202 45.0503C12.1139 45.0501 12.0082 45.065 11.906 45.0947C11.7033 45.1648 11.5192 45.2813 11.3679 45.4353C11.2165 45.5893 11.102 45.7766 11.0331 45.9827C10.7984 46.5488 10.6484 47.1475 10.5879 47.7588C10.5264 48.3486 10.506 48.9422 10.5268 49.5349C11.4986 49.4757 12.5083 49.4461 13.5557 49.4461Z" fill="#56AF31"/>
<path d="M10.4744 53.1137C10.2799 52.5312 10.1167 51.9382 9.98561 51.3376C9.89832 50.938 9.82849 50.5384 9.76739 50.1299C6.86793 50.3451 3.98282 50.7275 1.12598 51.2755C1.53257 53.0822 2.04855 54.8617 2.67096 56.6037C5.43144 55.7867 8.23119 55.1139 11.0592 54.5879C10.8384 54.1075 10.6431 53.6154 10.4744 53.1137Z" fill="#56AF31"/>
<path d="M19.2031 73.5656L18.4612 71.7896C17.8046 72.2203 17.098 72.5663 16.3575 72.8197C15.3119 73.0357 14.2384 73.0747 13.1803 72.9351C15.2313 74.9119 17.4845 76.6594 19.9014 78.1479C20.012 77.9053 20.0997 77.6526 20.1633 77.3931C20.2723 76.929 20.2723 76.4452 20.1633 75.9811C20.1371 75.8301 19.2817 73.7699 19.2031 73.5656Z" fill="#56AF31"/>
<path d="M32.0605 52.1905C32.0644 52.2081 32.0644 52.2263 32.0605 52.2438L32.1139 52.1816C32.1139 52.1816 32.0694 52.1905 32.0605 52.1905Z" fill="#56AF31"/>
<path d="M32.0265 52.2261C31.9993 52.2551 31.9699 52.2819 31.9384 52.306H31.9912C32.0042 52.2976 32.0144 52.2855 32.0207 52.2713C32.0269 52.2571 32.0289 52.2414 32.0265 52.2261Z" fill="#56AF31"/>
<path d="M11.391 59.4458C11.9147 59.3303 12.4559 59.2238 12.9971 59.1261L12.4646 57.8828C12.0631 58.4156 11.714 58.9396 11.391 59.4458Z" fill="#56AF31"/>
<path d="M24.5538 58.8415C20.9202 58.7823 17.2881 59.0319 13.6953 59.5875L14.4373 61.3636L15.1181 61.1238C15.6571 60.9748 16.2208 60.9428 16.7728 61.0301C17.3247 61.1173 17.8524 61.3217 18.3215 61.63C18.494 61.7385 18.6601 61.8571 18.8191 61.9852L20.2244 61.4968C20.7826 61.29 21.378 61.2082 21.9701 61.257C22.0488 61.2262 22.1359 61.2262 22.2145 61.257C22.3116 61.2847 22.4142 61.2847 22.5113 61.257H22.7208C22.8015 61.2733 22.8845 61.2733 22.9652 61.257C23.0699 61.257 23.1485 61.257 23.1747 61.257C23.2009 61.257 23.2532 61.257 23.3231 61.257C23.4507 61.2031 23.582 61.1586 23.7159 61.1238C23.9264 61.0689 24.1334 61.0006 24.3356 60.9195C24.5104 60.8358 24.6953 60.7761 24.8855 60.7419C25.1914 60.67 25.4854 60.5534 25.7584 60.3956C26.1547 60.1878 26.5628 60.004 26.9804 59.845C27.4168 59.6763 27.7572 59.552 27.9842 59.4454C28.2676 59.3304 28.5594 59.2383 28.8571 59.1701C29.0558 59.1387 29.2478 59.0726 29.4244 58.9747C27.8824 58.8859 26.2588 58.8415 24.5538 58.8415Z" fill="#56AF31"/>
<path d="M14.8388 63.7793C14.7109 63.8196 14.5739 63.8196 14.446 63.7793H14.35C13.9582 64.0008 13.6162 64.3033 13.3462 64.6673C13.9572 64.5075 14.5682 64.3476 15.1705 64.2056L14.9959 63.7793H14.8388Z" fill="#56AF31"/>
<path d="M17.7367 63.6016C17.649 63.5288 17.5556 63.4635 17.4574 63.4062C17.3624 63.4252 17.269 63.452 17.1781 63.4862C16.9989 63.5677 16.8067 63.6158 16.6107 63.6283C16.4465 63.6293 16.2827 63.6472 16.1219 63.6815C15.9182 63.7255 15.7104 63.7463 15.5022 63.7437L15.6506 64.0989C16.3663 63.9302 17.0821 63.7792 17.7891 63.646C17.777 63.6257 17.7586 63.6101 17.7367 63.6016Z" fill="#56AF31"/>
<path d="M31.8947 52.3413C31.9149 52.3462 31.9361 52.3462 31.9563 52.3413H31.8947Z" fill="#56AF31"/>
<path d="M31.5891 48.1409H31.6684C31.6426 48.1327 31.6149 48.1327 31.5891 48.1409Z" fill="#56AF31"/>
<path d="M30.778 48.4873C30.7456 48.5044 30.7206 48.5328 30.7075 48.5672L30.778 48.4873Z" fill="#56AF31"/>
<path d="M32.4358 48.2031C32.3723 48.1914 32.3073 48.1914 32.2438 48.2031H32.3747H32.4358Z" fill="#56AF31"/>
<path d="M29.9658 49.8991C29.9621 49.8785 29.9621 49.8575 29.9658 49.8369C29.9525 49.9282 29.9525 50.0209 29.9658 50.1122C29.9615 50.0412 29.9615 49.9701 29.9658 49.8991Z" fill="#56AF31"/>
<path d="M9.70631 49.5707C9.70631 49.322 9.64521 49.0734 9.63648 48.8247C9.5705 48.018 9.5705 47.2071 9.63648 46.4004C9.71725 45.6596 9.86629 44.9282 10.0816 44.2158C10.2449 43.7179 10.4646 43.2411 10.7363 42.7949H0C0.111414 45.4626 0.447242 48.1157 1.0038 50.7251C3.88179 50.1792 6.78696 49.7938 9.70631 49.5707Z" fill="#56AF31"/>
<path d="M34.9933 66.5232C34.9977 66.5763 34.9977 66.6298 34.9933 66.683C34.9828 66.8951 35.0034 67.1076 35.0544 67.3135C35.0823 67.4598 35.097 67.6085 35.0981 67.7575C35.0883 67.9054 35.0883 68.0537 35.0981 68.2016C35.1161 68.3817 35.1161 68.5632 35.0981 68.7433C35.0822 68.9045 35.097 69.0673 35.1417 69.2228C35.1735 69.3539 35.194 69.4877 35.2028 69.6224C35.1896 69.6988 35.1896 69.7769 35.2028 69.8533C35.2195 69.9263 35.2195 70.0023 35.2028 70.0753C35.2159 70.1338 35.2159 70.1945 35.2028 70.2529V70.324C35.2028 70.324 35.2028 70.4217 35.2028 70.4927C35.1835 70.5894 35.1835 70.6891 35.2028 70.7858C35.216 70.8181 35.2228 70.8528 35.2228 70.8879C35.2228 70.9229 35.216 70.9576 35.2028 70.99C35.5014 71.855 35.7177 72.7471 35.8487 73.6541C36.0309 74.5045 36.3031 75.3322 36.6605 76.1229C36.8962 76.7445 37.0707 77.2329 37.1668 77.597C37.2258 77.8419 37.2638 78.0915 37.2802 78.343C37.2824 78.5462 37.3058 78.7487 37.3501 78.9469C37.3747 79.1622 37.3747 79.3798 37.3501 79.5951V79.8083C37.3459 79.8699 37.3259 79.9293 37.2923 79.9807C37.2586 80.0321 37.2123 80.0737 37.158 80.1013C37.1635 80.1736 37.1424 80.2454 37.0989 80.3028C37.0554 80.3602 36.9925 80.3992 36.9223 80.4121C36.8705 80.4203 36.8175 80.4118 36.7706 80.388C36.7237 80.3641 36.6852 80.326 36.6605 80.2789C36.5953 80.0892 36.5953 79.8826 36.6605 79.6928C36.5692 79.5818 36.5036 79.4513 36.4685 79.311C36.4541 79.2228 36.4541 79.1328 36.4685 79.0446C36.4599 78.9708 36.4599 78.8963 36.4685 78.8225C36.4541 78.7141 36.4216 78.609 36.3724 78.5117C36.3386 78.416 36.274 78.3347 36.1891 78.2808C36.1066 78.2306 36.0278 78.1742 35.9535 78.1121C35.8394 78.0982 35.7278 78.0683 35.6218 78.0233C35.4472 77.9603 35.291 77.8533 35.1679 77.7125C35.095 77.6474 35.0472 77.5582 35.0328 77.4607C35.0184 77.3632 35.0384 77.2636 35.0893 77.1797L35.3075 76.7712C35.3341 76.7202 35.3663 76.6726 35.4036 76.6291C35.2662 76.3876 35.1633 76.1275 35.0981 75.8565C34.9235 75.3592 34.7227 74.8352 34.4783 74.2935C34.2846 73.8502 34.0631 73.4201 33.8149 73.0059C33.5128 72.4639 33.3506 71.8528 33.3436 71.2298C33.2675 71.1346 33.2272 71.015 33.2301 70.8923C33.2484 70.7119 33.215 70.53 33.1341 70.3684C33.0572 70.2504 33.0204 70.11 33.0294 69.9688C32.8249 69.281 32.5313 68.624 32.1565 68.0151C31.9446 67.6525 31.7636 67.2723 31.6153 66.8784C27.887 67.3574 24.1865 68.0392 20.5299 68.9209C20.3765 69.4054 20.1747 69.8726 19.9276 70.3151C19.6244 70.7621 19.2731 71.1731 18.8801 71.5406C19.0198 71.8692 19.1769 72.2688 19.2991 72.5707L19.6221 73.3877C19.7181 73.6275 20.556 75.6522 20.5822 75.741C20.7141 76.3255 20.7141 76.9327 20.5822 77.5171C20.516 77.8246 20.4134 78.1228 20.2767 78.4052C26.3747 82.0721 33.3304 84.0015 40.4138 83.991H40.667V66.1235C38.9387 66.2035 37.0358 66.3278 34.9933 66.5232Z" fill="#56AF31"/>
<path d="M7.65511 61.0532C6.78224 61.3196 5.90937 61.6127 5.0365 61.9413C5.53404 62.9004 6.05776 63.8328 6.61639 64.7386C6.81361 63.4716 7.16244 62.234 7.65511 61.0532Z" fill="#56AF31"/>
<path d="M30.2013 49.0908V49.1529C30.2155 49.1157 30.2333 49.08 30.2546 49.0464L30.2013 49.0908Z" fill="#56AF31"/>
<path d="M29.9657 50.2364C29.9751 50.2882 29.99 50.3388 30.0101 50.3874C29.9999 50.287 29.9999 50.1858 30.0101 50.0854C29.9909 50.1344 29.976 50.1849 29.9657 50.2364Z" fill="#56AF31"/>
<path d="M40.6845 62.625C38.6769 62.625 36.5122 62.625 34.2165 62.625C34.2065 62.6688 34.2065 62.7144 34.2165 62.7582C34.2257 62.8051 34.2257 62.8534 34.2165 62.9003C34.208 62.9622 34.208 63.0249 34.2165 63.0868C34.2402 63.1495 34.2549 63.2152 34.2602 63.2822V63.3621C34.2693 63.4209 34.2693 63.4809 34.2602 63.5397C34.2503 63.5925 34.2503 63.6467 34.2602 63.6995C34.2602 63.7528 34.3038 63.815 34.3213 63.886L34.3736 64.0814C34.3878 64.1426 34.4082 64.2022 34.4347 64.259C34.4347 64.259 34.4958 64.4988 34.618 64.9428C34.7068 65.2503 34.7682 65.5654 34.8013 65.8841C36.8526 65.6888 38.7642 65.5644 40.5186 65.4845L40.6845 62.625Z" fill="#56AF31"/>
<path d="M14.8388 48.6915C14.8911 48.9491 14.9261 49.2066 14.961 49.4641C16.9075 49.4641 19.0198 49.6328 21.3853 49.8726C24.3181 50.1746 27.2859 50.6008 30.018 51.0448C30.0136 50.9481 30.0447 50.8532 30.1053 50.7784C29.9923 50.6307 29.9282 50.4504 29.922 50.2634C29.8872 50.1085 29.8872 49.9476 29.922 49.7927C29.9171 49.7544 29.9171 49.7156 29.922 49.6772C29.9099 49.6269 29.9092 49.5744 29.9198 49.5237C29.9303 49.4729 29.952 49.4253 29.9831 49.3842C30.0018 49.3239 30.0423 49.2731 30.0965 49.2421C30.1135 49.2019 30.1339 49.1632 30.1576 49.1267C30.2536 48.9117 30.4247 48.7407 30.6377 48.6471C30.6377 48.6027 30.6901 48.5672 30.7425 48.5317L30.8647 48.4429C30.8647 48.4429 30.9694 48.3452 31.1265 48.3008H31.1702C31.2177 48.2559 31.2799 48.2306 31.3447 48.2297C31.3992 48.2162 31.4561 48.2162 31.5106 48.2297C31.5556 48.2127 31.6052 48.2127 31.6502 48.2297C31.7034 48.2038 31.7615 48.1903 31.8205 48.1903C31.8794 48.1903 31.9376 48.2038 31.9907 48.2297C32.0541 48.209 32.1216 48.2046 32.1872 48.217C32.2527 48.2294 32.3142 48.2582 32.366 48.3008H32.4358C32.4794 48.3257 32.5179 48.3589 32.5493 48.3985C32.5493 48.3985 32.5493 48.3985 32.6017 48.4606L32.7937 48.5761C32.9476 48.6129 33.0819 48.7082 33.169 48.8425C33.2301 48.9757 33.3785 49.0379 33.6229 49.0379C33.7401 49.0148 33.8614 49.037 33.9634 49.1C33.9634 49.1444 33.9634 49.2332 33.911 49.3487C33.8586 49.4641 33.8586 49.544 33.9634 49.5884C33.9878 49.6028 34.008 49.6235 34.0218 49.6485C34.0356 49.6735 34.0426 49.7019 34.0419 49.7305C34.0419 49.8193 34.0419 49.8637 34.1292 49.8549C34.1558 49.8495 34.1833 49.8549 34.2061 49.8698C34.2289 49.8847 34.2451 49.908 34.2514 49.9348C34.2592 49.9848 34.2592 50.0357 34.2514 50.0857C34.2722 50.1897 34.3171 50.2872 34.3823 50.3699C34.4135 50.4188 34.4301 50.4759 34.4301 50.5342C34.4301 50.5925 34.4135 50.6496 34.3823 50.6985L34.0332 51.258C33.9516 51.3878 33.9092 51.539 33.911 51.6931L34.5133 51.8085C34.5705 51.7369 34.6349 51.6714 34.7053 51.6132C34.9267 51.4063 35.1126 51.1631 35.2552 50.8939C35.2814 50.8001 35.3134 50.7081 35.3512 50.6186C35.5364 50.2443 35.6827 49.8515 35.7877 49.4464C35.8774 49.0387 36.0499 48.6545 36.2939 48.3185C36.5471 47.9728 36.7582 47.5971 36.9224 47.1996C36.9748 47.0398 37.0271 46.9154 37.062 46.8178C37.097 46.7201 37.1581 46.5957 37.1755 46.5513C37.193 46.5069 37.1755 46.4537 37.1144 46.3471C37.0776 46.2852 37.0367 46.2259 36.9922 46.1695C36.9697 46.1433 36.952 46.1132 36.9398 46.0807C36.9364 46.0452 36.9364 46.0095 36.9398 45.9741C36.9398 45.8912 36.9573 45.8379 36.9922 45.8143C36.9922 45.8143 37.0795 45.8143 37.1319 45.8942L37.2104 46.0096C37.2659 46.0466 37.3158 46.0915 37.3588 46.1428C37.4025 46.1961 37.4112 46.1428 37.3588 46.0718C37.3064 46.0008 37.3588 45.9119 37.3588 45.8409C37.3588 45.7699 37.3588 45.7521 37.3152 45.6722L37.2541 45.4946C37.2017 45.3525 37.193 45.2637 37.2541 45.2193C37.265 45.1997 37.2823 45.1846 37.303 45.1765C37.3237 45.1684 37.3465 45.1678 37.3675 45.1749C37.4199 45.1749 37.4723 45.2726 37.5247 45.4235C37.5247 45.4857 37.5945 45.5656 37.6381 45.6633C37.6415 45.6308 37.6415 45.5981 37.6381 45.5656C37.6381 45.5656 37.6381 45.5656 37.6381 45.5123C37.6334 45.48 37.6334 45.447 37.6381 45.4146C37.6381 45.4146 37.6381 45.3436 37.6381 45.2992C37.6322 45.2669 37.6322 45.2338 37.6381 45.2015C37.6381 45.2015 37.6381 45.1394 37.6905 45.1482C37.7516 45.1482 37.7865 45.1482 37.7953 45.2015C37.7953 45.0683 37.7953 44.9884 37.8738 44.9706C37.9524 44.9529 37.9873 44.9706 38.0222 45.0505C38.0636 45.1588 38.0901 45.2724 38.1008 45.388C38.1112 45.4943 38.1112 45.6014 38.1008 45.7077C38.1436 45.7762 38.1592 45.8588 38.1444 45.9386C38.1444 46.0718 38.1444 46.1428 38.2666 46.1784C38.3432 46.2025 38.4144 46.2417 38.4761 46.2938C38.5534 46.3509 38.6388 46.3958 38.7292 46.427C38.7757 46.4386 38.8182 46.4629 38.8521 46.4974C38.8859 46.5318 38.9099 46.5751 38.9213 46.6224C38.9266 46.6387 38.9285 46.656 38.9269 46.6731C38.9253 46.6902 38.9203 46.7068 38.9121 46.7218C38.9039 46.7368 38.8927 46.7499 38.8792 46.7603C38.8658 46.7707 38.8504 46.7782 38.834 46.7822C38.6899 46.7903 38.5477 46.7463 38.4324 46.6579C38.3893 46.6261 38.3374 46.609 38.2841 46.609C38.2308 46.609 38.1788 46.6261 38.1357 46.6579C38.0146 46.741 37.8714 46.7843 37.7254 46.7822C37.6209 47.1063 37.565 47.4446 37.5596 47.7857C37.5425 48.1729 37.484 48.557 37.385 48.9313C37.3115 49.1277 37.2531 49.3296 37.2104 49.5352C37.1844 49.6998 37.125 49.857 37.0359 49.9969C36.9354 50.1498 36.8588 50.3175 36.8089 50.4942C36.7487 50.7225 36.6699 50.9453 36.5732 51.1603C36.4568 51.449 36.3606 51.7458 36.2852 52.0483C36.2852 52.1194 36.2328 52.1638 36.2154 52.2259C38.1706 52.6167 39.7068 52.9541 40.5797 53.114V42.7949H11.3473C13.0472 44.3756 14.26 46.4238 14.8388 48.6915Z" fill="#56AF31"/>
<path d="M35.4735 59.6943C35.2814 60.0939 35.0283 60.6356 34.7315 61.3283C34.7315 61.4171 34.7315 61.5947 34.522 61.8434C34.4857 61.8908 34.459 61.9452 34.4435 62.0032V62.0565C36.6518 62.0565 38.7467 62.0565 40.6932 62.0565V59.4368C39.6109 59.3569 37.9175 59.2325 35.7528 59.126L35.4735 59.6943Z" fill="#56AF31"/>
<path d="M20.7132 68.3173C24.2479 67.4769 27.8226 66.8218 31.4233 66.3547V66.2926C31.2861 65.7186 31.1021 65.1572 30.8734 64.6142C30.6391 64.0561 30.3709 63.5133 30.0704 62.9891C29.7599 62.9568 29.4469 62.9568 29.1364 62.9891C28.897 63.0344 28.6551 63.064 28.4119 63.0779H28.0453L26.8233 63.1312C26.5304 63.1252 26.2376 63.152 25.9504 63.2111C25.7399 63.2531 25.5272 63.2828 25.3133 63.2999L24.5888 63.3798C24.3465 63.4222 24.1014 63.446 23.8556 63.4508C23.652 63.4405 23.4481 63.4405 23.2445 63.4508C23.085 63.4687 22.924 63.4687 22.7645 63.4508C22.6516 63.44 22.5404 63.4162 22.4328 63.3798L20.303 63.6995C20.4437 63.9554 20.5634 64.2228 20.6609 64.4987C20.9388 65.357 21.0107 66.2705 20.8703 67.1629C20.8406 67.5505 20.7881 67.936 20.7132 68.3173Z" fill="#56AF31"/>
<path d="M15.5808 70.7948C15.9597 70.6881 16.3279 70.5454 16.6806 70.3685C17.0002 70.1954 17.2941 69.9772 17.5535 69.7202C16.2354 70.0843 14.9349 70.4928 13.5645 70.9368C14.2393 71.02 14.9236 70.9718 15.5808 70.7948Z" fill="#56AF31"/>
<path d="M18.9152 65.5728C18.8286 65.1815 18.6812 64.8068 18.4787 64.4628C18.4089 64.3473 18.3303 64.2496 18.2518 64.1431C17.4662 64.294 16.6719 64.4539 15.8776 64.6404L17.7891 69.0806L18.1645 68.9829C18.4708 68.5248 18.7062 68.0216 18.8628 67.491C19.0401 66.8665 19.0581 66.2063 18.9152 65.5728Z" fill="#56AF31"/>
<path d="M36.6606 55.8047C36.6407 55.9734 36.6056 56.1398 36.5558 56.302C36.4444 56.6527 36.3798 57.0171 36.3638 57.3854C36.3268 57.7826 36.2142 58.1687 36.0321 58.5221C38.0484 58.6198 39.6545 58.7352 40.702 58.8152V56.3464C39.7593 56.2132 38.4063 56.0178 36.6606 55.8047Z" fill="#56AF31"/>
<path d="M30.0881 49.2687L30.1321 49.2065L30.0616 49.2776L30.0881 49.2687Z" fill="#56AF31"/>
<path d="M30.1228 50.6182C30.0839 50.5537 30.0518 50.4852 30.0268 50.414C30.0028 50.3714 29.9824 50.3268 29.9657 50.2808C29.9889 50.4213 30.0426 50.5547 30.1228 50.6715V50.6182Z" fill="#56AF31"/>
<path d="M30.0278 49.3574C29.9833 49.4223 29.9643 49.5014 29.9745 49.5794C29.9662 49.5146 29.9662 49.4489 29.9745 49.3841L30.0278 49.3574Z" fill="#56AF31"/>
<path d="M30.1331 50.6184C30.1276 50.6041 30.1276 50.5883 30.1331 50.574V50.503C30.0754 50.4002 30.0476 50.2833 30.0531 50.1655C30.0325 50.3211 30.0605 50.4793 30.1331 50.6184Z" fill="#56AF31"/>
<path d="M23.6286 25.4336L23.4714 25.6201C23.4103 25.6822 23.358 25.7533 23.2969 25.8243C23.2358 25.8954 23.1048 26.073 23.0175 26.2062L22.8866 26.3838C22.7644 26.5792 22.6509 26.7745 22.5462 26.9699L22.4414 27.1742C22.3716 27.3162 22.3018 27.4583 22.2407 27.6093L22.1359 27.8757C22.0836 28.0089 22.0312 28.1421 21.9876 28.2842L21.909 28.5595C21.862 28.7109 21.8241 28.8652 21.7955 29.0213C21.77 29.1028 21.7496 29.1858 21.7344 29.2699C21.7344 29.5097 21.6559 29.7495 21.6297 29.9981C21.6035 30.2468 21.6297 30.38 21.6297 30.5754H28.7087L23.6286 25.4336Z" fill="#0053A1"/>
<path d="M21.6123 31.1261C21.6123 31.206 21.6123 31.2859 21.6123 31.357C21.6123 31.428 21.6123 31.6056 21.6123 31.7211C21.6123 31.8365 21.6123 31.9697 21.6734 32.094C21.7345 32.2184 21.6734 32.3427 21.7345 32.4581C21.7956 32.5736 21.7956 32.6979 21.8305 32.8133C21.8654 32.9288 21.8916 33.0531 21.9265 33.1774C21.9615 33.3018 22.0051 33.3817 22.04 33.4883C22.0749 33.5948 22.1273 33.7369 22.1797 33.8612L22.267 34.0388C22.4082 34.345 22.5685 34.6416 22.747 34.9269C22.747 34.9802 22.8081 35.0335 22.8431 35.0779C22.9291 35.2132 23.0224 35.3436 23.1224 35.4686C23.164 35.5344 23.2107 35.5968 23.262 35.6551C23.358 35.7794 23.4628 35.9037 23.5675 36.0192L23.6897 36.1524L28.6302 31.1172L21.6123 31.1261Z" fill="#0053A1"/>
<path d="M10.3697 40.7699C10.3801 40.9403 10.4034 41.1095 10.4395 41.2761H11.8536L12.2551 41.0364C12.188 40.8394 12.1555 40.632 12.1591 40.4236L10.4133 39.9707C10.4 40.1688 10.4 40.3676 10.4133 40.5657C10.361 40.6545 10.361 40.7078 10.3697 40.7699Z" fill="#0053A1"/>
<path d="M29.9918 31.126L34.9148 36.1612L34.9672 36.0901C35.3451 35.6861 35.676 35.2391 35.9535 34.7581C35.9972 34.687 36.0495 34.6071 36.0845 34.5361C36.1194 34.465 36.2067 34.3052 36.259 34.1897C36.3114 34.0743 36.355 33.9855 36.4074 33.8789L36.5296 33.5681C36.5296 33.4349 36.6256 33.3106 36.6606 33.1774C36.6949 33.0874 36.724 32.9955 36.7478 32.9021C36.7478 32.7422 36.8264 32.5913 36.8613 32.4314L36.9137 32.2005C36.9544 31.9696 36.9893 31.7298 37.0184 31.4812C37.0184 31.3569 37.0184 31.2414 37.0184 31.126H29.9918Z" fill="#0053A1"/>
<path d="M30.8472 40.1572C30.4487 40.2229 30.0462 40.2615 29.6426 40.2727L29.5466 41.3117H31.1876L30.8472 40.1572Z" fill="#0053A1"/>
<path d="M37.0708 30.5755C37.0567 29.9764 36.9777 29.3808 36.8351 28.7994C36.8189 28.7155 36.7985 28.6325 36.774 28.5507C36.774 28.4264 36.6955 28.2932 36.6518 28.1689L36.5471 27.8669C36.5471 27.7515 36.4511 27.6449 36.4074 27.5295C36.3638 27.414 36.3027 27.2986 36.2416 27.1831C36.1805 27.0677 36.1456 26.9966 36.1019 26.899L35.8662 26.5082C35.8226 26.4372 35.779 26.3661 35.7266 26.2951C35.5968 26.0904 35.4539 25.8946 35.2989 25.709C35.2203 25.6113 35.133 25.5225 35.0457 25.4248L29.9918 30.5577L37.0708 30.5755Z" fill="#0053A1"/>
<path d="M29.6078 30.1934L34.6704 25.0427C34.2505 24.6372 33.788 24.2798 33.2913 23.9771C33.2215 23.9771 33.1516 23.8883 33.0731 23.8527L32.7327 23.6751L32.4272 23.5242L32.1217 23.3998C31.9994 23.3475 31.874 23.3031 31.7463 23.2666L31.467 23.1778C31.312 23.131 31.1546 23.0924 30.9957 23.0624C30.9242 23.0394 30.8513 23.0216 30.7774 23.0091C30.5447 22.9676 30.309 22.9321 30.0704 22.9025C29.9163 22.8938 29.7619 22.8938 29.6078 22.9025V30.1934Z" fill="#0053A1"/>
<path d="M29.0666 22.8848H28.8659H28.3858H28.1588L27.6613 22.9736L27.5129 23.018C26.7076 23.2192 25.9387 23.5489 25.2347 23.9948L25.0689 24.1014L24.6848 24.3856L24.4928 24.5276L24.1436 24.8385L24.0127 24.9628L29.0666 30.1934V22.8848Z" fill="#0053A1"/>
<path d="M29.6078 31.5166V38.6209C30.2307 38.5956 30.8487 38.4973 31.4495 38.3279L31.9034 38.1769L32.1216 38.0881C32.2526 38.0881 32.3661 37.9904 32.4883 37.9372L32.785 37.7862L33.0905 37.6263C33.2127 37.5553 33.3349 37.4842 33.4484 37.4043L33.6754 37.2622C33.8674 37.1201 34.0594 36.9781 34.2427 36.8271C34.426 36.6761 34.4348 36.6495 34.522 36.5607L29.6078 31.5166Z" fill="#0053A1"/>
<path d="M1.67592 29.6963C1.59736 29.9627 1.5188 30.2291 1.44897 30.4955L1.9116 29.9893C1.82787 29.8961 1.7492 29.7983 1.67592 29.6963Z" fill="#0053A1"/>
<path d="M12.7264 39.1185L11.7837 37.52C11.6223 37.6505 11.4705 37.793 11.3298 37.9463L11.2076 38.0973C11.1076 38.2222 11.0144 38.3527 10.9283 38.488C10.8994 38.5403 10.8673 38.5907 10.8323 38.639C10.7385 38.8135 10.6568 38.9945 10.5879 39.1807L12.3336 39.6336C12.4294 39.4369 12.563 39.2618 12.7264 39.1185Z" fill="#0053A1"/>
<path d="M8.88582 31.5698C9.84419 31.5427 10.7875 31.3206 11.66 30.9164C12.5326 30.5122 13.3166 29.9342 13.9659 29.2165C14.9279 28.142 15.5565 26.8024 15.7731 25.3658C15.9896 23.9291 15.7843 22.4595 15.183 21.1411C14.5817 19.8227 13.6111 18.7143 12.393 17.955C11.1749 17.1956 9.76352 16.8191 8.33592 16.8727L7.89948 16.9171C5.5069 20.2306 3.61239 23.888 2.2782 27.769C2.92556 28.9629 3.88613 29.9505 5.05283 30.6216C6.21953 31.2927 7.5465 31.621 8.88582 31.5698Z" fill="#0053A1"/>
<path d="M35.0806 12.1753C35.1427 13.7798 35.7175 15.3198 36.7178 16.5619C37.7181 17.8039 39.0893 18.6801 40.6233 19.0576V4.72461C38.9963 5.12509 37.5555 6.08578 36.5452 7.44376C35.535 8.80175 35.0175 10.4734 35.0806 12.1753Z" fill="#0053A1"/>
<path d="M14.9435 38.8253L15.0133 38.8697L15.1181 38.9408C15.1998 39.0015 15.2758 39.0699 15.345 39.145L16.9598 38.186C16.8311 38.0166 16.688 37.8591 16.5321 37.7153L16.3925 37.5998C16.2703 37.4944 16.1421 37.3966 16.0084 37.3068L15.8513 37.2091C15.6806 37.112 15.5025 37.0288 15.3188 36.9604L14.8737 38.7365L14.9435 38.8253Z" fill="#0053A1"/>
<path d="M14.0619 38.5854L14.5071 36.8093C14.3125 36.7914 14.1168 36.7914 13.9222 36.8093H13.7564C13.5919 36.8205 13.4285 36.8443 13.2676 36.8804L13.0843 36.9248C12.8865 36.9785 12.6937 37.0498 12.5082 37.1379L13.4421 38.7275C13.6392 38.6445 13.8489 38.5964 14.0619 38.5854Z" fill="#0053A1"/>
<path d="M15.9037 40.5306L17.6931 40.9924C17.7105 40.7826 17.7105 40.5717 17.6931 40.3619C17.6974 40.2998 17.6974 40.2375 17.6931 40.1754C17.6827 40.0109 17.6593 39.8476 17.6232 39.687C17.6232 39.6248 17.6232 39.5715 17.6232 39.5094C17.5689 39.3115 17.4988 39.1184 17.4138 38.9321L15.8339 39.9001C15.8909 40.105 15.9145 40.318 15.9037 40.5306Z" fill="#0053A1"/>
<path d="M14.2103 40.8501C14.3068 40.8021 14.3809 40.7176 14.4168 40.6147C14.4527 40.5117 14.4475 40.3986 14.4024 40.2995C14.3439 40.2185 14.2586 40.1618 14.1622 40.1396C14.0659 40.1175 13.9649 40.1315 13.8779 40.179C13.7909 40.2265 13.7236 40.3044 13.6885 40.3983C13.6533 40.4922 13.6527 40.5959 13.6866 40.6902C13.7379 40.7793 13.8204 40.8452 13.9176 40.8749C14.0148 40.9045 14.1193 40.8957 14.2103 40.8501Z" fill="#0053A1"/>
<path d="M29.0665 31.5166L24.1261 36.5429L24.2919 36.6939L24.5102 36.8804C24.6236 36.9781 24.7546 37.0757 24.8768 37.1646L25.0601 37.2978C25.2434 37.4221 25.4354 37.5375 25.6362 37.653L25.7933 37.7329L26.2646 37.9638L26.4916 38.0526L26.9455 38.2213L27.1724 38.2924L27.6787 38.4167L27.8707 38.4611C28.113 38.5126 28.3577 38.5511 28.6039 38.5765H29.0665V31.5166Z" fill="#0053A1"/>
<path d="M24.004 12.2106H24.0651L24.1698 12.2816C24.2477 12.3373 24.3181 12.4029 24.3793 12.477L25.8457 11.589C25.7287 11.4315 25.5972 11.2858 25.4529 11.1538L25.3133 11.0739L24.9554 10.8164L24.807 10.7187C24.6502 10.629 24.4867 10.5518 24.3182 10.4878L23.908 12.1751L24.004 12.2106Z" fill="#0053A1"/>
<path d="M23.1835 11.9798L23.5675 10.3014C23.3876 10.2837 23.2063 10.2837 23.0263 10.3014H22.8605C22.7111 10.3134 22.5624 10.3341 22.4153 10.3635H22.2408C22.0552 10.4127 21.8741 10.4781 21.6996 10.5589L22.5725 12.0419C22.7702 11.981 22.9778 11.9599 23.1835 11.9798Z" fill="#0053A1"/>
<path d="M23.0001 13.4096C22.9114 13.4537 22.8434 13.5315 22.8107 13.6263C22.778 13.721 22.7834 13.825 22.8255 13.9158C22.8785 13.9928 22.9575 14.0472 23.0475 14.0686C23.1374 14.09 23.232 14.0769 23.313 14.0318C23.3941 13.9868 23.4559 13.9129 23.4868 13.8243C23.5176 13.7357 23.5153 13.6386 23.4802 13.5517C23.4327 13.4706 23.3567 13.4108 23.2676 13.3845C23.1785 13.3581 23.0829 13.3671 23.0001 13.4096Z" fill="#0053A1"/>
<path d="M21.9439 12.4772L21.0711 10.9941C20.9163 11.1132 20.7731 11.247 20.6434 11.3938L20.5386 11.527C20.4415 11.6459 20.3511 11.7705 20.268 11.8999L20.1895 12.0332C20.1013 12.1927 20.0255 12.359 19.9625 12.5305L21.6122 12.9567C21.6951 12.7788 21.8073 12.6166 21.9439 12.4772Z" fill="#0053A1"/>
<path d="M27.155 41.3117L27.2685 40.0507C26.9025 39.9632 26.5412 39.8565 26.1861 39.731L25.3831 41.3117H27.155Z" fill="#0053A1"/>
<path d="M24.807 13.205C24.8658 13.3946 24.8952 13.5923 24.8943 13.7911L26.5527 14.2174C26.5701 14.0224 26.5701 13.8263 26.5527 13.6313C26.557 13.5722 26.557 13.5128 26.5527 13.4537C26.5404 13.3047 26.52 13.1564 26.4916 13.0097C26.4876 12.9535 26.4876 12.8971 26.4916 12.8409C26.4421 12.6583 26.3779 12.4801 26.2996 12.3081L24.807 13.205Z" fill="#0053A1"/>
<path d="M39.9076 22.352L37.804 21.5972L38.6158 19.2617L40.6234 19.9899V19.457C38.9559 19.0511 37.4715 18.0855 36.4095 16.716C35.3476 15.3465 34.77 13.653 34.77 11.9087C34.77 10.1643 35.3476 8.47081 36.4095 7.10134C37.4715 5.73187 38.9559 4.76626 40.6234 4.36029V0H40.1171C34.2286 0.0317221 28.4196 1.38625 23.1052 3.96681C17.7909 6.54736 13.1023 10.2902 9.37462 14.928V15.2921C9.74447 15.3282 10.1118 15.3875 10.4744 15.4697L11.0243 13.8979L13.128 14.6616L12.5781 16.2245C12.987 16.4374 13.3782 16.6839 13.7477 16.9616L14.865 15.7272L16.506 17.2724L15.3712 18.5068C15.6496 18.8459 15.9034 19.205 16.1306 19.5814L17.6494 18.8798L18.5659 20.9489L17.021 21.6594C17.1318 22.0383 17.2192 22.4238 17.2828 22.8138L18.9762 22.7428L19.0635 25.0073L17.3177 25.0783C17.2823 25.4429 17.2239 25.8048 17.1432 26.1618L18.7754 26.7479L18.0335 28.888L16.3838 28.2931C16.1833 28.6972 15.9497 29.0833 15.6855 29.4475L16.986 30.6641L15.5109 32.3248L14.2103 31.0815C13.8879 31.348 13.5497 31.5941 13.1978 31.8186L13.9659 33.4881L11.9409 34.3761L11.1989 32.7155C10.8424 32.8324 10.4777 32.9215 10.1078 32.9819L10.1689 34.8024L7.94312 34.8912L7.85583 33.1151C7.50417 33.0806 7.15454 33.0272 6.80839 32.9553L6.19738 34.6337L4.09376 33.8788L4.67858 32.1738C4.28565 31.9739 3.9091 31.7423 3.55258 31.4811L2.34802 32.8576L1.14346 31.712C0.397235 34.8559 0.013496 38.0775 0 41.3118H8.82472C8.76283 41.2544 8.72528 41.1748 8.71997 41.0898V40.6457C8.71641 40.5995 8.72201 40.5531 8.73643 40.5091C8.75085 40.4651 8.7738 40.4245 8.80392 40.3898C8.83403 40.355 8.87071 40.3267 8.91176 40.3066C8.95282 40.2865 8.99742 40.275 9.04293 40.2728H9.58411C9.60031 40.0433 9.62945 39.815 9.6714 39.589L9.16514 39.4025C9.12147 39.3875 9.08115 39.3638 9.04651 39.3329C9.01187 39.302 8.98359 39.2644 8.9633 39.2223C8.94301 39.1802 8.93112 39.1344 8.92831 39.0876C8.9255 39.0408 8.93182 38.9939 8.94692 38.9496L9.09531 38.5322C9.10991 38.4878 9.1332 38.447 9.16377 38.412C9.19433 38.3771 9.23153 38.3488 9.27313 38.3289C9.31473 38.309 9.35987 38.2978 9.40581 38.2961C9.45176 38.2944 9.49757 38.3022 9.54047 38.3191L10.0555 38.4967C10.148 38.2987 10.256 38.1087 10.3784 37.9283L9.9769 37.5642C9.91238 37.4963 9.8763 37.4056 9.8763 37.3111C9.8763 37.2167 9.91238 37.1259 9.9769 37.058L10.2737 36.7295C10.3389 36.6644 10.4267 36.6279 10.5181 36.6279C10.6095 36.6279 10.6972 36.6644 10.7625 36.7295L11.164 37.0936C11.3115 36.9625 11.4691 36.8437 11.6354 36.7383L11.3473 36.2055C11.3266 36.1643 11.3142 36.1192 11.3108 36.0729C11.3075 36.0267 11.3134 35.9803 11.328 35.9364C11.3427 35.8925 11.3658 35.852 11.3961 35.8174C11.4264 35.7828 11.4633 35.7547 11.5044 35.7349L11.9059 35.5395C11.9894 35.4999 12.0847 35.4954 12.1714 35.527C12.258 35.5586 12.3289 35.6237 12.3686 35.7082L12.5955 36.1966C12.7698 36.1351 12.9476 36.0847 13.128 36.0457V35.5128C13.123 35.4191 13.1539 35.3271 13.2141 35.2559C13.2742 35.1848 13.3591 35.14 13.4509 35.131H13.8874C13.979 35.1281 14.0683 35.1602 14.1378 35.2211C14.2073 35.2819 14.2518 35.367 14.2627 35.4596V35.9835C14.4911 36 14.7184 36.0296 14.9435 36.0723L15.1094 35.5839C15.1427 35.4972 15.2075 35.4268 15.2903 35.3872C15.3731 35.3475 15.4676 35.3417 15.5545 35.3708L15.9735 35.5128C16.0594 35.5486 16.1288 35.6161 16.1676 35.7018C16.2065 35.7875 16.212 35.885 16.183 35.9746L16.0084 36.4542C16.2052 36.5527 16.3948 36.6655 16.5758 36.7916L16.9162 36.4186C16.9483 36.3773 16.9891 36.3436 17.0355 36.3203C17.0819 36.2969 17.1329 36.2843 17.1847 36.2834C17.2366 36.2826 17.2879 36.2935 17.3351 36.3153C17.3822 36.3372 17.424 36.3694 17.4574 36.4098L17.7804 36.7117C17.8443 36.7781 17.8802 36.8674 17.8802 36.9604C17.8802 37.0533 17.8443 37.1426 17.7804 37.209L17.4399 37.582C17.5718 37.738 17.6914 37.9043 17.7978 38.0793L18.2517 37.8573C18.3351 37.8177 18.4305 37.8132 18.5171 37.8448C18.6038 37.8764 18.6746 37.9415 18.7143 38.026L18.9064 38.4256C18.943 38.5108 18.9462 38.607 18.9154 38.6945C18.8846 38.782 18.822 38.8542 18.7405 38.8963L18.2866 39.1183C18.3482 39.2982 18.3978 39.4822 18.435 39.6689H18.9238C19.0173 39.664 19.109 39.6966 19.1792 39.7597C19.2494 39.8228 19.2924 39.9113 19.2992 40.0063V40.4415C19.3027 40.4882 19.2972 40.5351 19.2829 40.5796C19.2686 40.6241 19.2457 40.6652 19.2157 40.7007C19.1857 40.7362 19.1491 40.7653 19.108 40.7864C19.0669 40.8074 19.0221 40.82 18.9762 40.8233H18.4787C18.4787 41.001 18.4787 41.1786 18.4176 41.3562H25.0339L23.2009 40.3971L24.0738 38.6832C23.6846 38.4172 23.3169 38.1203 22.9739 37.7951L21.5162 39.0295L20.0062 37.1646L21.4464 35.948C21.2068 35.5639 20.9939 35.1634 20.8092 34.7491L19.0635 35.2908L18.3303 32.9198L20.076 32.3869C20.0056 31.9729 19.9619 31.5546 19.9451 31.1348L18.1208 30.9661L18.3303 28.5506L20.1284 28.7282C20.2094 28.3429 20.3144 27.9633 20.4426 27.5915L18.8453 26.7567L19.9189 24.5988L21.4988 25.4158C21.7634 25.0111 22.055 24.6253 22.3717 24.2613L21.2369 22.876L23.1485 21.313L24.2658 22.6895C24.6568 22.4352 25.0652 22.2097 25.4878 22.0146L24.9903 20.3095L27.2685 19.6169L27.766 21.313C28.1844 21.2403 28.6074 21.1988 29.0317 21.1887L29.1975 19.4126L31.5717 19.6435L31.4059 21.4196C31.7944 21.508 32.1765 21.6237 32.5493 21.7659L33.3436 20.1852L35.456 21.313L34.6617 22.8938C35.0607 23.1705 35.4372 23.4793 35.7877 23.8173L37.1493 22.6806L38.6594 24.5455L37.289 25.6911C37.5379 26.088 37.7568 26.5036 37.9437 26.9343L39.6894 26.4104L40.3702 28.7282L38.6245 29.261C38.6891 29.6754 38.727 30.0937 38.738 30.5132L40.5448 30.6908L40.3179 33.0974L38.4848 32.9198C38.398 33.3025 38.2872 33.6792 38.1531 34.0476L39.8029 34.9356L38.7205 37.0936L37.0621 36.2055C36.7997 36.6007 36.5079 36.9748 36.1892 37.3245L37.385 38.7986L35.552 40.3349L34.3038 38.8341C33.9262 39.0751 33.5325 39.2888 33.1254 39.4735L33.6753 41.3118H40.6583L40.5972 20.2651L39.9076 22.352ZM27.7573 13.9867H27.2946C27.2804 14.2051 27.2483 14.422 27.1986 14.635L27.6438 14.7948C27.6842 14.8096 27.7212 14.8325 27.7528 14.862C27.7844 14.8916 27.8098 14.9273 27.8277 14.9669C27.8456 15.0066 27.8555 15.0495 27.8569 15.0932C27.8583 15.1368 27.8511 15.1803 27.8358 15.2211L27.7049 15.6118C27.6754 15.6926 27.6158 15.7584 27.5391 15.7949C27.4623 15.8315 27.3745 15.8359 27.2946 15.8072L26.8408 15.6473C26.7529 15.8319 26.6476 16.0073 26.5265 16.1713L26.8844 16.4998C26.9441 16.5613 26.9776 16.6443 26.9776 16.7307C26.9776 16.8172 26.9441 16.9001 26.8844 16.9616L26.6138 17.2724C26.5534 17.3332 26.4718 17.3672 26.3869 17.3672C26.3019 17.3672 26.2204 17.3332 26.1599 17.2724L25.7933 16.9439C25.6551 17.0604 25.5093 17.1672 25.3569 17.2636L25.5664 17.7165C25.603 17.7956 25.6081 17.8861 25.5804 17.969C25.5527 18.0518 25.4945 18.1205 25.418 18.1605L25.0514 18.3381C24.9725 18.3748 24.8827 18.3786 24.8011 18.3487C24.7195 18.3188 24.6527 18.2576 24.6149 18.1782L24.4404 17.7609C24.281 17.8158 24.1176 17.8574 23.9516 17.8852V18.3914C23.9551 18.4346 23.9503 18.478 23.9373 18.5193C23.9243 18.5605 23.9034 18.5988 23.8758 18.6318C23.8482 18.6648 23.8145 18.692 23.7766 18.7117C23.7386 18.7314 23.6972 18.7432 23.6548 18.7466H23.2445C23.2025 18.7502 23.1603 18.7452 23.1202 18.7319C23.0802 18.7186 23.0432 18.6972 23.0114 18.669C22.9797 18.6409 22.9538 18.6065 22.9354 18.5679C22.9169 18.5294 22.9063 18.4875 22.9041 18.4447V17.9296C22.6954 17.9181 22.4881 17.8883 22.2844 17.8408L22.1098 18.3292C22.0962 18.3699 22.0746 18.4075 22.0464 18.4395C22.0181 18.4716 21.9839 18.4975 21.9455 18.5157C21.9072 18.534 21.8657 18.5442 21.8234 18.5457C21.7812 18.5472 21.739 18.54 21.6995 18.5246L21.3155 18.3825C21.2754 18.3686 21.2386 18.3467 21.2071 18.318C21.1756 18.2892 21.1501 18.2544 21.1322 18.2154C21.1142 18.1764 21.1042 18.1342 21.1027 18.0912C21.1012 18.0481 21.1083 18.0053 21.1235 17.9651L21.2893 17.4856C21.1147 17.3879 20.9489 17.2813 20.783 17.1659L20.4426 17.5389C20.4125 17.5703 20.3766 17.5952 20.3368 17.6123C20.2971 17.6293 20.2544 17.6381 20.2113 17.6381C20.1682 17.6381 20.1255 17.6293 20.0858 17.6123C20.0461 17.5952 20.0101 17.5703 19.98 17.5389L19.6832 17.2636C19.623 17.2006 19.5893 17.1161 19.5893 17.0282C19.5893 16.9403 19.623 16.8559 19.6832 16.7929L20.0149 16.4199C19.8947 16.2786 19.7867 16.1271 19.6919 15.967L19.2293 16.189C19.1911 16.2082 19.1495 16.2193 19.1069 16.2217C19.0643 16.224 19.0218 16.2175 18.9817 16.2025C18.9417 16.1876 18.9051 16.1645 18.8742 16.1347C18.8432 16.1049 18.8185 16.069 18.8016 16.0292L18.627 15.6562C18.6082 15.6173 18.5972 15.5749 18.595 15.5316C18.5927 15.4883 18.5991 15.445 18.6138 15.4043C18.6285 15.3636 18.6512 15.3264 18.6805 15.2949C18.7097 15.2634 18.745 15.2383 18.7842 15.2211L19.2031 15.0967C19.1434 14.9351 19.0967 14.7688 19.0635 14.5994H18.5572C18.4729 14.6043 18.3901 14.5755 18.3265 14.5191C18.2629 14.4626 18.2235 14.3831 18.2168 14.2975V13.8801C18.2132 13.8374 18.2181 13.7944 18.2312 13.7537C18.2443 13.7129 18.2654 13.6753 18.293 13.643C18.3207 13.6106 18.3545 13.5843 18.3924 13.5656C18.4303 13.5468 18.4715 13.536 18.5136 13.5338H19.0198C19.0326 13.3221 19.0588 13.1115 19.0984 12.9033L18.6183 12.7345C18.5389 12.7045 18.4742 12.6439 18.4383 12.5658C18.4024 12.4878 18.3981 12.3984 18.4263 12.3172L18.5572 11.9264C18.5867 11.8456 18.6463 11.7798 18.723 11.7433C18.7998 11.7067 18.8876 11.7024 18.9675 11.7311L19.4475 11.8998C19.5327 11.7174 19.6319 11.5422 19.7443 11.3758L19.369 11.0295C19.3093 10.968 19.2758 10.885 19.2758 10.7986C19.2758 10.7122 19.3093 10.6292 19.369 10.5677L19.6396 10.2658C19.7011 10.2071 19.7822 10.1744 19.8665 10.1744C19.9508 10.1744 20.032 10.2071 20.0935 10.2658L20.4688 10.6121C20.6067 10.4899 20.7525 10.3771 20.9052 10.2747L20.6696 9.76847C20.6333 9.69063 20.6285 9.60141 20.6563 9.52002C20.684 9.43864 20.7421 9.3716 20.818 9.33333L21.1846 9.15573C21.2623 9.11842 21.3513 9.11331 21.4328 9.14147C21.5142 9.16964 21.5817 9.22887 21.621 9.30669L21.8218 9.76847C21.9838 9.70599 22.1501 9.65554 22.3193 9.61751V9.12908C22.3157 9.08637 22.3206 9.04337 22.3337 9.00263C22.3468 8.96188 22.3678 8.92424 22.3955 8.89193C22.4232 8.85962 22.457 8.8333 22.4949 8.81454C22.5328 8.79579 22.574 8.78498 22.6161 8.78275H23.0263C23.0683 8.77912 23.1106 8.78411 23.1506 8.79744C23.1907 8.81077 23.2277 8.83215 23.2594 8.86032C23.2912 8.88848 23.317 8.92286 23.3355 8.96141C23.3539 8.99995 23.3645 9.04187 23.3667 9.08468V9.5731C23.5809 9.58221 23.794 9.60894 24.0039 9.65303L24.161 9.20013C24.1747 9.15939 24.1962 9.12187 24.2245 9.08982C24.2527 9.05777 24.287 9.03185 24.3253 9.01361C24.3636 8.99537 24.4051 8.98518 24.4474 8.98366C24.4897 8.98214 24.5318 8.98931 24.5713 9.00476L24.9554 9.13796C25.0348 9.168 25.0994 9.22858 25.1353 9.30666C25.1713 9.38474 25.1756 9.47405 25.1474 9.55534L24.9903 10.0082C25.1743 10.0998 25.3522 10.2036 25.5227 10.3191L25.8282 9.97272C25.8901 9.91143 25.9731 9.87713 26.0595 9.87713C26.1459 9.87713 26.2289 9.91143 26.2908 9.97272L26.5876 10.248C26.6473 10.3095 26.6808 10.3925 26.6808 10.4789C26.6808 10.5653 26.6473 10.6483 26.5876 10.7098L26.2821 11.0561C26.4044 11.201 26.5153 11.3554 26.6138 11.5179L27.0328 11.3137C27.1093 11.2768 27.197 11.2719 27.277 11.3001C27.357 11.3284 27.4229 11.3875 27.4605 11.4646L27.6351 11.8376C27.6539 11.8765 27.6649 11.9189 27.6671 11.9622C27.6694 12.0055 27.663 12.0488 27.6483 12.0895C27.6336 12.1302 27.6109 12.1674 27.5817 12.1989C27.5524 12.2305 27.5171 12.2556 27.4779 12.2728L27.059 12.4326C27.1113 12.6102 27.155 12.7789 27.1899 12.9477H27.6525C27.7376 12.9451 27.8204 12.976 27.8838 13.0338C27.9472 13.0917 27.9863 13.1721 27.9929 13.2585V13.6759C27.9932 13.747 27.9702 13.8161 27.9275 13.8724C27.8848 13.9287 27.8249 13.9689 27.7573 13.9867ZM39.0435 1.82937L40.0473 4.09388L38.0222 4.98192L37.0184 2.77069L39.0435 1.82937ZM35.4298 3.92515L37.1755 5.61243L35.7004 7.27307L33.9546 5.59467L35.4298 3.92515ZM32.8636 7.36188L35.1592 8.18776L34.4173 10.3279L32.1216 9.50206L32.8636 7.36188ZM31.8598 11.2426L34.2951 11.1538L34.3824 13.4183L31.947 13.5071L31.8598 11.2426ZM33.2825 17.3701L32.366 15.3099L34.5831 14.2886L35.4996 16.3578L33.2825 17.3701ZM36.0583 20.5227L34.426 18.9864L36.0757 17.1659L37.708 18.7111L36.0583 20.5227Z" fill="#0053A1"/>
<path d="M21.5076 14.2888C21.4503 14.1051 21.4238 13.913 21.429 13.7204L19.7705 13.3208C19.7529 13.5039 19.7529 13.6883 19.7705 13.8714C19.7705 13.9247 19.7705 13.978 19.7705 14.0312C19.781 14.1869 19.8044 14.3414 19.8404 14.493C19.8363 14.5492 19.8363 14.6056 19.8404 14.6617C19.8888 14.8476 19.9531 15.0289 20.0324 15.2035L21.5076 14.2888Z" fill="#0053A1"/>
<path d="M24.353 15.0258L25.2259 16.5266C25.3738 16.4027 25.5138 16.2692 25.6449 16.127L25.7583 15.9938C25.8544 15.8784 25.9416 15.754 26.0289 15.6297C26.1162 15.5054 26.09 15.532 26.1162 15.4876C26.2052 15.3241 26.2839 15.155 26.3519 14.9814L24.6934 14.5552C24.6077 14.731 24.4925 14.8903 24.353 15.0258Z" fill="#0053A1"/>
<path d="M21.909 14.9722L20.4426 15.8602C20.5563 16.0123 20.6818 16.1549 20.818 16.2865L20.9576 16.4108C21.0711 16.4996 21.1846 16.5884 21.3068 16.6683L21.4552 16.766C21.6142 16.8572 21.7807 16.9345 21.9527 16.9969L22.3629 15.3185C22.1941 15.229 22.0408 15.112 21.909 14.9722Z" fill="#0053A1"/>
<path d="M23.1136 15.5141L22.6946 17.2014C22.8833 17.2189 23.0732 17.2189 23.2619 17.2014H23.4365C23.5831 17.1901 23.7289 17.1693 23.873 17.1392H24.0475C24.222 17.0944 24.3916 17.0319 24.5538 16.9528L23.6809 15.4697C23.4947 15.511 23.3038 15.526 23.1136 15.5141Z" fill="#0053A1"/>
<path d="M116.345 51.4268H119.173V65.3158H118.44V52.1372H116.17L116.345 51.4268Z" fill="white"/>
<path d="M131.934 65.3158H124.026C123.467 65.3158 123.153 64.9073 123.153 64.3034C123.153 62.6517 131.009 59.1794 131.009 55.6805C131.009 53.4515 129.804 51.9863 127.518 51.9863C127.044 51.9476 126.568 52.0151 126.123 52.1839C125.678 52.3528 125.275 52.6189 124.942 52.9636C124.609 53.3082 124.354 53.723 124.196 54.1786C124.038 54.6342 123.98 55.1196 124.026 55.6006C124.033 56.0517 124.132 56.4964 124.319 56.9058C124.505 57.3151 124.775 57.6799 125.109 57.9764C125.443 58.273 125.835 58.4946 126.259 58.6269C126.683 58.7591 127.13 58.7992 127.57 58.7443V58.7975C127.273 59.0749 126.913 59.2732 126.522 59.3748C125.597 59.2686 124.742 58.8217 124.118 58.1183C123.494 57.4149 123.145 56.5036 123.136 55.5562C123.136 52.8921 124.689 51.187 127.5 51.187C129.743 51.187 131.864 52.3415 131.864 55.6805C131.864 59.4991 124.009 63.371 124.009 64.3478C124.019 64.4019 124.049 64.4501 124.093 64.4829C124.136 64.5157 124.19 64.5309 124.244 64.5254H131.917L131.934 65.3158Z" fill="white"/>
<path d="M97.7615 40.85L101.48 16.633C101.733 15.0434 102.117 13.9067 103.697 13.9067C105.277 13.9067 105.67 14.2087 106.604 17.0859L113.787 38.6121C113.962 39.065 114.171 39.5001 114.39 39.5001C114.608 39.5001 114.73 39.0828 114.896 38.6121L122.08 17.0859C123.022 14.2087 123.363 13.9067 124.986 13.9067C126.61 13.9067 126.959 15.0434 127.212 16.633L130.931 40.85H129.185L125.466 16.5176C125.388 15.8338 125.213 15.4164 124.873 15.4164C124.532 15.4164 124.314 15.8338 124.105 16.5176L116.895 38.1858C116.083 40.6901 115.821 41.1075 114.372 41.1075C112.923 41.1075 112.626 40.6901 111.85 38.1858L104.666 16.4732C104.456 15.7894 104.282 15.372 103.898 15.372C103.514 15.372 103.383 15.7894 103.295 16.4732L99.577 40.85H97.7615Z" fill="white"/>
<path d="M133.61 27.5291C133.61 20.0429 140.279 13.8354 148.781 13.8354C157.282 13.8354 164.047 20.0518 164.047 27.5291C164.047 35.0064 157.291 41.2227 148.781 41.2227C140.27 41.2227 133.61 35.0508 133.61 27.5291ZM162.162 27.5291C162.162 20.9132 156.348 15.2741 148.781 15.2741C141.213 15.2741 135.487 20.9398 135.487 27.5291C135.487 34.1184 141.169 39.793 148.781 39.793C156.392 39.793 162.162 34.1805 162.162 27.5291Z" fill="white"/>
<path d="M175.84 40.8502H174.094V15.6741H165.583V14.3154H184.368V15.6741H175.883L175.84 40.8502Z" fill="white"/>
<path d="M216.585 40.8502H212.779C205.343 40.8502 197.941 36.1525 197.941 27.6006C197.941 19.0487 205.299 14.3599 212.779 14.3599H216.62V15.7186H213.129C206.87 15.6742 199.887 19.4661 199.887 27.5295C199.887 35.593 206.87 39.4116 213.137 39.4116H216.629L216.585 40.8502Z" fill="white"/>
<path d="M220.644 40.8502V14.3154H222.433V26.2685H239.018V14.3154H240.764V40.8502H239.018V27.6361H222.433V40.8502H220.644Z" fill="white"/>
<path d="M267.098 40.8499H265.352V27.8579H250.007V26.4992H265.352V22.4852C265.352 18.045 261.931 15.3009 256.842 15.3009C251.753 15.3009 248.331 18.0183 248.331 22.4852V40.8499H246.586V22.9825C246.586 17.228 250.645 13.8623 256.886 13.8623C263.127 13.8623 267.098 17.228 267.098 22.9825V40.8499Z" fill="white"/>
<path d="M272.624 40.8498V22.2008C272.624 17.1301 276.115 13.8799 281.509 13.8799C286.904 13.8799 290.666 16.7394 290.666 20.7445C290.666 23.9237 289.208 26.3125 285.743 27.3693V27.4492C289.033 27.9376 291.259 30.0511 291.259 33.5323V40.8498H289.383V33.3103C289.383 30.5129 287.41 28.2395 282.286 28.2395H276.176V26.872H281.047C286.284 26.872 288.824 24.4565 288.824 20.8954C288.824 17.5653 285.786 15.3008 281.553 15.3008C276.944 15.3008 274.465 18.0981 274.465 22.112V40.8498H272.624Z" fill="white"/>
<path d="M304.047 40.8502H302.249V15.6741H293.738V14.3154H312.548V15.6741H304.047V40.8502Z" fill="white"/>
<path d="M331.952 27.8581H315.542C315.542 35.6551 323.154 39.4027 329.22 39.4027H331.952V40.8502H328.54C321.094 40.8502 313.744 36.1525 313.744 27.6006C313.744 19.0487 321.094 14.3599 328.54 14.3599H331.952V15.7186H328.618C321.015 15.7186 315.525 21.3932 315.525 26.5438H331.935L331.952 27.8581Z" fill="white"/>
<path d="M336.745 40.8498V22.2008C336.745 17.1301 340.236 13.8799 345.639 13.8799C351.042 13.8799 354.787 16.7571 354.787 20.7622C354.787 23.9414 353.329 26.3302 349.864 27.387V27.4669C353.154 27.9554 355.38 30.0689 355.38 33.55V40.8498H353.512V33.3103C353.512 30.5129 351.54 28.2395 346.416 28.2395H340.245V26.872H345.124C350.361 26.872 352.901 24.4565 352.901 20.8954C352.901 17.5653 349.864 15.3008 345.639 15.3008C341.022 15.3008 338.543 18.0981 338.543 22.112V40.8498H336.745Z" fill="white"/>
<path d="M97.4559 65.2711V51.5064H98.259V57.7227H100.38C102.414 57.7227 103.051 56.9768 104.107 54.5169L105.39 51.4976H106.263L104.343 55.7957C103.784 57.0567 103.173 57.6872 102.44 57.8382C104.264 57.9714 105.993 59.2146 105.993 62.2784V65.2711H105.181V62.3228C105.181 59.7564 104.011 58.442 101.227 58.442H98.1979V65.2711H97.4559Z" fill="white"/>
<path d="M108.332 60.2446H114.669V60.9906H108.332V60.2446Z" fill="white"/>
<path d="M143.194 57.3409C143.589 57.3374 143.975 57.4531 144.305 57.6735C144.634 57.8938 144.892 58.2088 145.045 58.5784C145.199 58.9481 145.241 59.3557 145.166 59.7496C145.091 60.1436 144.903 60.506 144.625 60.7909C144.348 61.0759 143.993 61.2705 143.606 61.3501C143.22 61.4297 142.819 61.3906 142.454 61.2379C142.09 61.0852 141.778 60.8257 141.558 60.4923C141.339 60.159 141.222 59.7668 141.222 59.3656C141.22 59.1009 141.271 58.8385 141.369 58.5935C141.468 58.3485 141.613 58.1256 141.796 57.9376C141.979 57.7496 142.197 57.6001 142.437 57.4977C142.677 57.3954 142.934 57.3421 143.194 57.3409Z" fill="white"/>
<path d="M165.13 65.2711H164.37V58.895H157.841V58.2201H164.37V56.2397C164.37 55.26 163.988 54.3203 163.307 53.6275C162.626 52.9347 161.702 52.5455 160.739 52.5455C159.776 52.5455 158.852 52.9347 158.171 53.6275C157.49 54.3203 157.108 55.26 157.108 56.2397V65.2711H156.34V56.4884C156.34 55.3025 156.803 54.1652 157.627 53.3267C158.451 52.4882 159.569 52.0171 160.735 52.0171C161.9 52.0171 163.018 52.4882 163.842 53.3267C164.666 54.1652 165.13 55.3025 165.13 56.4884V65.2711Z" fill="white"/>
<path d="M167.408 65.2711V56.3906H168.097V58.0957C168.328 57.601 168.687 57.1802 169.137 56.8795C169.586 56.5788 170.108 56.4096 170.646 56.3906H171.449V57.0655H170.716C169.372 57.0655 168.097 58.5219 168.097 60.6177V65.2711H167.408Z" fill="white"/>
<path d="M173.169 56.4264H176.232V57.1013H173.169V62.8026C173.147 63.0352 173.175 63.2699 173.25 63.4906C173.326 63.7112 173.448 63.9127 173.607 64.0813C173.766 64.2499 173.959 64.3816 174.172 64.4674C174.386 64.5533 174.615 64.5912 174.845 64.5787H176.232V65.2536H174.993C174.655 65.2911 174.314 65.2514 173.993 65.1373C173.673 65.0232 173.381 64.8376 173.14 64.5941C172.899 64.3506 172.715 64.0554 172.6 63.7301C172.486 63.4047 172.445 63.0575 172.479 62.7138V53.9932H173.169V56.4264Z" fill="white"/>
<path d="M177.14 64.5962H180.99C182.5 64.5962 183.084 64.0013 183.084 63.1043C183.084 60.1649 177.114 61.87 177.114 58.5753C177.106 58.2833 177.158 57.9928 177.267 57.7224C177.376 57.4521 177.539 57.2079 177.746 57.0055C177.954 56.8032 178.2 56.6471 178.47 56.5473C178.74 56.4476 179.027 56.4063 179.314 56.4263H183.198V57.1012H179.366C179.173 57.0901 178.979 57.1198 178.798 57.1884C178.616 57.257 178.451 57.363 178.312 57.4997C178.172 57.6364 178.062 57.801 177.988 57.983C177.914 58.1651 177.878 58.3607 177.882 58.5576C177.882 61.1684 183.844 59.5167 183.844 62.9978C183.844 64.5519 182.735 65.28 180.824 65.28H177.14V64.5962Z" fill="white"/>
<path d="M185.459 64.5254H186.218L185.048 67.5447H184.429L185.459 64.5254Z" fill="white"/>
<path d="M199.564 52.9097H195.313C193.201 52.9097 192.512 53.7977 192.512 55.2097C192.512 59.2325 200.289 56.9858 200.289 61.9677C200.289 64.1523 198.787 65.2712 196.3 65.2712H191.708V64.5608H196.186C198.281 64.5608 199.486 63.6727 199.486 62.0743C199.486 57.634 191.708 60.1827 191.708 55.1386C191.708 53.1317 193.201 52.1992 195.025 52.1992H199.564V52.9097Z" fill="white"/>
<path d="M207.472 56.9857H206.216C205.714 56.9609 205.212 57.0401 204.742 57.2183C204.271 57.3966 203.841 57.6703 203.477 58.0227C203.113 58.3752 202.824 58.7992 202.626 59.2689C202.428 59.7387 202.326 60.2444 202.326 60.7554C202.326 61.2665 202.428 61.7722 202.626 62.2419C202.824 62.7117 203.113 63.1356 203.477 63.4881C203.841 63.8406 204.271 64.1143 204.742 64.2926C205.212 64.4708 205.714 64.55 206.216 64.5252H207.472V65.2711H206.181C205.037 65.2196 203.958 64.7213 203.167 63.88C202.376 63.0388 201.935 61.9196 201.935 60.7554C201.935 59.5913 202.376 58.4721 203.167 57.6308C203.958 56.7896 205.037 56.2913 206.181 56.2397H207.472V56.9857Z" fill="white"/>
<path d="M210.187 53.3624C210.296 53.3606 210.403 53.3919 210.495 53.4523C210.587 53.5127 210.658 53.5995 210.701 53.7015C210.744 53.8036 210.756 53.9163 210.736 54.0254C210.716 54.1345 210.664 54.2351 210.588 54.3142C210.511 54.3933 210.413 54.4475 210.306 54.4698C210.199 54.4921 210.088 54.4816 209.987 54.4395C209.886 54.3974 209.8 54.3258 209.739 54.2336C209.678 54.1414 209.646 54.0329 209.646 53.9218C209.645 53.8488 209.658 53.7762 209.685 53.7084C209.711 53.6406 209.751 53.5788 209.801 53.5268C209.852 53.4747 209.912 53.4333 209.978 53.4051C210.044 53.3769 210.115 53.3624 210.187 53.3624ZM209.838 65.271V56.3906H210.536V65.271H209.838Z" fill="white"/>
<path d="M214.621 62.092L220.181 58.2645C219.849 57.8364 219.424 57.492 218.94 57.2579C218.455 57.0238 217.924 56.9064 217.388 56.9147C216.884 56.9239 216.386 57.0346 215.924 57.2403C215.462 57.446 215.045 57.7428 214.696 58.1134C214.347 58.484 214.073 58.9213 213.891 59.3999C213.709 59.8785 213.622 60.389 213.635 60.902C213.629 61.4081 213.722 61.9102 213.908 62.3797C214.094 62.8491 214.369 63.2765 214.718 63.6372C215.067 63.9979 215.482 64.2848 215.94 64.4814C216.399 64.678 216.891 64.7805 217.388 64.7828C218.375 64.7788 219.321 64.3862 220.029 63.6875C220.737 62.9887 221.151 62.0381 221.185 61.0352H221.91C221.869 61.9305 221.571 62.7939 221.052 63.5185C220.534 64.2432 219.818 64.7972 218.993 65.1122C218.168 65.4271 217.271 65.489 216.412 65.2903C215.553 65.0916 214.77 64.6409 214.16 63.9942C213.55 63.3474 213.14 62.5328 212.981 61.6514C212.822 60.77 212.92 59.8603 213.263 59.035C213.607 58.2097 214.181 57.5051 214.914 57.0082C215.647 56.5114 216.507 56.2442 217.388 56.2398C218.158 56.236 218.917 56.4332 219.591 56.8125C220.265 57.1919 220.832 57.7407 221.238 58.4066L215.058 62.6959L214.621 62.092Z" fill="white"/>
<path d="M229.678 65.2709V59.9426C229.716 59.5493 229.672 59.1524 229.55 58.7773C229.428 58.4022 229.23 58.0572 228.969 57.7646C228.708 57.4719 228.39 57.2381 228.035 57.0781C227.679 56.918 227.295 56.8354 226.907 56.8354C226.518 56.8354 226.134 56.918 225.779 57.0781C225.424 57.2381 225.106 57.4719 224.845 57.7646C224.584 58.0572 224.386 58.4022 224.264 58.7773C224.142 59.1524 224.098 59.5493 224.135 59.9426V65.2709H223.455V59.8804C223.394 59.3811 223.439 58.8744 223.585 58.3938C223.732 57.9133 223.977 57.4699 224.305 57.093C224.632 56.7161 225.035 56.4143 225.486 56.2076C225.937 56.0009 226.425 55.894 226.92 55.894C227.414 55.894 227.903 56.0009 228.354 56.2076C228.805 56.4143 229.208 56.7161 229.535 57.093C229.863 57.4699 230.108 57.9133 230.255 58.3938C230.401 58.8744 230.446 59.3811 230.385 59.8804V65.2709H229.678Z" fill="white"/>
<path d="M237.866 56.9857H236.6C236.098 56.9609 235.597 57.0401 235.126 57.2183C234.655 57.3966 234.225 57.6703 233.862 58.0227C233.498 58.3752 233.208 58.7992 233.01 59.2689C232.813 59.7387 232.711 60.2444 232.711 60.7554C232.711 61.2665 232.813 61.7722 233.01 62.2419C233.208 62.7117 233.498 63.1356 233.862 63.4881C234.225 63.8406 234.655 64.1143 235.126 64.2926C235.597 64.4708 236.098 64.55 236.6 64.5252H237.866V65.2711H236.548C235.405 65.2196 234.325 64.7213 233.534 63.88C232.743 63.0388 232.302 61.9196 232.302 60.7554C232.302 59.5913 232.743 58.4721 233.534 57.6308C234.325 56.7896 235.405 56.2913 236.548 56.2397H237.848L237.866 56.9857Z" fill="white"/>
<path d="M240.956 62.0919L246.516 58.2645C246.184 57.8375 245.761 57.4938 245.278 57.2598C244.795 57.0257 244.266 56.9076 243.731 56.9146C243.227 56.9227 242.729 57.0325 242.266 57.2378C241.803 57.4432 241.385 57.7399 241.036 58.1107C240.687 58.4816 240.414 58.9193 240.232 59.3984C240.05 59.8776 239.964 60.3886 239.978 60.9019C239.961 61.9194 240.341 62.9022 241.036 63.6342C241.731 64.3661 242.683 64.7872 243.683 64.8049C244.683 64.8226 245.649 64.4353 246.369 63.7284C247.088 63.0214 247.502 62.0526 247.52 61.0352H248.253C248.199 62.1332 247.761 63.1754 247.018 63.9731C246.274 64.7708 245.274 65.2711 244.199 65.3835C243.124 65.496 242.045 65.213 241.158 64.5859C240.27 63.9588 239.633 63.0291 239.361 61.9651C239.089 60.9011 239.201 59.7732 239.676 58.7858C240.151 57.7983 240.957 57.0165 241.95 56.582C242.943 56.1475 244.055 56.0891 245.087 56.4173C246.118 56.7454 247 57.4385 247.572 58.371L241.401 62.6603L240.956 62.0919Z" fill="white"/>
<path d="M262.874 52.1992V52.8741H257.732C256.859 52.8741 256.563 53.1761 256.563 53.8687C256.563 54.5614 257.017 55.0232 257.732 55.8491L263.764 62.8202C264.232 62.0319 264.459 61.1203 264.418 60.2005C264.44 59.5499 264.306 58.9037 264.027 58.3175C263.749 57.7312 263.335 57.2225 262.821 56.8348L263.275 56.373C263.886 56.8352 264.377 57.4427 264.704 58.1424C265.031 58.8422 265.185 59.6128 265.152 60.387C265.168 61.4695 264.841 62.5285 264.218 63.4063L265.693 65.2712H264.82L263.764 63.9392C263.205 64.4927 262.537 64.9204 261.805 65.1942C261.072 65.4681 260.291 65.5821 259.513 65.5288C257.113 65.5288 254.232 64.0191 254.232 60.4403C254.194 59.5126 254.421 58.5937 254.886 57.7946C255.351 56.9956 256.033 56.3507 256.851 55.9379C255.978 54.8722 255.891 54.517 255.891 53.851C255.891 52.6876 256.763 52.2347 257.968 52.2347L262.874 52.1992ZM257.331 56.3908C256.616 56.7298 256.012 57.2709 255.591 57.9496C255.17 58.6282 254.95 59.4158 254.957 60.2183C254.923 60.8386 255.019 61.4592 255.239 62.0387C255.46 62.6182 255.799 63.1434 256.234 63.5794C256.669 64.0153 257.19 64.3521 257.763 64.5672C258.336 64.7824 258.947 64.871 259.557 64.8272C260.242 64.8873 260.933 64.7928 261.579 64.5502C262.224 64.3077 262.81 63.9232 263.292 63.4241L257.331 56.3908Z" fill="white"/>
<path d="M275.408 65.2711H274.648V52.8385H271.017V52.1636H279.039V52.8385H275.408V65.2711Z" fill="white"/>
<path d="M280.479 62.092L286.04 58.2645C285.707 57.8364 285.282 57.492 284.798 57.2579C284.313 57.0238 283.783 56.9064 283.246 56.9147C282.742 56.9239 282.244 57.0346 281.782 57.2403C281.32 57.446 280.903 57.7428 280.554 58.1134C280.205 58.484 279.932 58.9213 279.749 59.3999C279.567 59.8785 279.48 60.389 279.493 60.902C279.52 61.8916 279.921 62.8326 280.612 63.5291C281.304 64.2255 282.233 64.6238 283.206 64.641C284.179 64.6581 285.12 64.2929 285.835 63.6212C286.55 62.9496 286.983 62.0233 287.043 61.0352H287.768C287.727 61.9305 287.429 62.7939 286.91 63.5185C286.392 64.2432 285.676 64.7972 284.851 65.1122C284.027 65.4271 283.129 65.489 282.27 65.2903C281.411 65.0916 280.628 64.6409 280.018 63.9942C279.408 63.3474 278.998 62.5328 278.839 61.6514C278.68 60.77 278.778 59.8603 279.121 59.035C279.465 58.2097 280.039 57.5051 280.772 57.0082C281.505 56.5114 282.365 56.2442 283.246 56.2398C284.017 56.236 284.775 56.4332 285.449 56.8125C286.123 57.1919 286.69 57.7407 287.096 58.4066L280.916 62.6959L280.479 62.092Z" fill="white"/>
<path d="M294.602 56.9857H293.345C292.844 56.9609 292.342 57.0401 291.872 57.2183C291.401 57.3966 290.97 57.6703 290.607 58.0227C290.243 58.3752 289.954 58.7992 289.756 59.2689C289.558 59.7387 289.456 60.2444 289.456 60.7554C289.456 61.2665 289.558 61.7722 289.756 62.2419C289.954 62.7117 290.243 63.1356 290.607 63.4881C290.97 63.8406 291.401 64.1143 291.872 64.2926C292.342 64.4708 292.844 64.55 293.345 64.5252H294.602V65.2711H293.284C292.141 65.2196 291.062 64.7213 290.271 63.88C289.48 63.0388 289.038 61.9196 289.038 60.7554C289.038 59.5913 289.48 58.4721 290.271 57.6308C291.062 56.7896 292.141 56.2913 293.284 56.2397H294.576L294.602 56.9857Z" fill="white"/>
<path d="M302.633 65.2712V59.943C302.663 59.5533 302.614 59.1614 302.488 58.792C302.363 58.4226 302.163 58.0837 301.902 57.7966C301.642 57.5094 301.325 57.2803 300.973 57.1236C300.621 56.9669 300.241 56.886 299.857 56.886C299.473 56.886 299.093 56.9669 298.741 57.1236C298.389 57.2803 298.072 57.5094 297.812 57.7966C297.551 58.0837 297.352 58.4226 297.226 58.792C297.1 59.1614 297.051 59.5533 297.081 59.943V65.2712H296.392V52.1992H297.081V57.6252C297.394 57.1857 297.806 56.8299 298.284 56.5886C298.761 56.3473 299.289 56.2276 299.822 56.2398C300.291 56.2283 300.758 56.3152 301.192 56.4953C301.627 56.6753 302.02 56.9446 302.348 57.2863C302.675 57.628 302.93 58.0347 303.096 58.4811C303.263 58.9275 303.336 59.404 303.314 59.8808V65.2712H302.633Z" fill="white"/>
<path d="M311.745 65.2709V59.9426C311.783 59.5493 311.739 59.1524 311.617 58.7773C311.495 58.4022 311.297 58.0572 311.036 57.7646C310.775 57.4719 310.457 57.2381 310.102 57.0781C309.747 56.918 309.363 56.8354 308.974 56.8354C308.586 56.8354 308.202 56.918 307.846 57.0781C307.491 57.2381 307.173 57.4719 306.912 57.7646C306.651 58.0572 306.453 58.4022 306.331 58.7773C306.209 59.1524 306.165 59.5493 306.203 59.9426V65.2709H305.504V59.8804C305.444 59.3811 305.489 58.8744 305.635 58.3938C305.782 57.9133 306.027 57.4699 306.354 57.093C306.682 56.7161 307.085 56.4143 307.535 56.2076C307.986 56.0009 308.475 55.894 308.97 55.894C309.464 55.894 309.953 56.0009 310.404 56.2076C310.855 56.4143 311.258 56.7161 311.585 57.093C311.913 57.4699 312.158 57.9133 312.304 58.3938C312.451 58.8744 312.496 59.3811 312.435 59.8804V65.2709H311.745Z" fill="white"/>
<path d="M322.962 60.8487C322.929 61.7189 322.646 62.5602 322.147 63.2679C321.648 63.9755 320.956 64.5183 320.156 64.8287C319.356 65.139 318.484 65.2032 317.649 65.0133C316.814 64.8234 316.051 64.3878 315.458 63.7606C314.864 63.1334 314.464 62.3424 314.309 61.486C314.153 60.6296 314.249 59.7456 314.584 58.9441C314.918 58.1425 315.477 57.4588 316.191 56.9779C316.905 56.4971 317.742 56.2404 318.598 56.2397C319.182 56.2501 319.758 56.3777 320.294 56.6151C320.83 56.8524 321.314 57.195 321.719 57.6231C322.125 58.0512 322.443 58.5565 322.656 59.11C322.87 59.6635 322.973 60.2543 322.962 60.8487ZM314.94 60.8487C314.983 61.5714 315.232 62.2658 315.658 62.8461C316.083 63.4265 316.666 63.8676 317.335 64.1151C318.004 64.3626 318.729 64.4057 319.422 64.2391C320.114 64.0724 320.744 63.7034 321.233 63.1774C321.722 62.6513 322.049 61.9913 322.174 61.2785C322.299 60.5657 322.216 59.8313 321.936 59.1657C321.656 58.5 321.191 57.9323 320.598 57.5324C320.004 57.1324 319.309 56.9177 318.598 56.9147C317.602 56.9472 316.659 57.3791 315.976 58.1162C315.292 58.8533 314.923 59.8356 314.949 60.8487H314.94Z" fill="white"/>
<path d="M325.336 65.2712V52.1992H326.034V65.2712H325.336Z" fill="white"/>
<path d="M337.155 60.8487C337.122 61.7189 336.839 62.5602 336.34 63.2679C335.841 63.9755 335.149 64.5183 334.349 64.8287C333.549 65.139 332.677 65.2032 331.842 65.0133C331.006 64.8234 330.244 64.3878 329.651 63.7606C329.057 63.1334 328.657 62.3424 328.502 61.486C328.346 60.6296 328.442 59.7456 328.777 58.9441C329.111 58.1425 329.67 57.4588 330.384 56.9779C331.098 56.4971 331.934 56.2404 332.79 56.2397C333.375 56.2501 333.951 56.3777 334.487 56.6151C335.023 56.8524 335.507 57.195 335.912 57.6231C336.318 58.0512 336.636 58.5565 336.849 59.11C337.063 59.6635 337.166 60.2543 337.155 60.8487ZM329.133 60.8487C329.176 61.5722 329.426 62.2672 329.852 62.8479C330.278 63.4286 330.862 63.8697 331.532 64.1166C332.202 64.3636 332.928 64.4056 333.621 64.2376C334.314 64.0695 334.944 63.6987 335.432 63.171C335.92 62.6432 336.246 61.9815 336.369 61.2676C336.492 60.5537 336.407 59.8187 336.124 59.1535C335.841 58.4882 335.373 57.9217 334.778 57.5238C334.182 57.126 333.485 56.9142 332.773 56.9147C331.779 56.9494 330.839 57.3824 330.157 58.1192C329.475 58.8561 329.107 59.8371 329.133 60.8487Z" fill="white"/>
<path d="M340.271 68.3794C340.966 68.6597 341.705 68.813 342.453 68.8323C344.792 68.8323 346.198 67.74 346.198 64.6407V60.8488C346.245 59.8566 345.905 58.8857 345.25 58.1484C344.596 57.4111 343.681 56.9676 342.706 56.9147C341.744 57.0079 340.851 57.4626 340.2 58.19C339.55 58.9175 339.19 59.8655 339.19 60.8488C339.19 61.8321 339.55 62.78 340.2 63.5075C340.851 64.235 341.744 64.6897 342.706 64.7828C343.221 64.7839 343.73 64.669 344.197 64.4463C344.663 64.2237 345.075 63.8989 345.403 63.4951V64.3832C344.671 65.0821 343.71 65.4807 342.706 65.5021C341.797 65.5699 340.889 65.3575 340.1 64.8926C339.311 64.4278 338.678 63.732 338.283 62.8958C337.888 62.0597 337.75 61.122 337.887 60.2049C338.023 59.2878 338.428 58.4338 339.049 57.7542C339.669 57.0745 340.476 56.6007 341.365 56.3944C342.254 56.1882 343.183 56.259 344.032 56.5978C344.881 56.9365 345.61 57.5275 346.124 58.2936C346.638 59.0598 346.913 59.9656 346.913 60.8932V65.2091C346.95 65.7987 346.862 66.3895 346.655 66.9414C346.448 67.4933 346.126 67.9934 345.712 68.4078C345.298 68.8222 344.802 69.1412 344.256 69.3432C343.71 69.5451 343.128 69.6253 342.549 69.5782C341.698 69.578 340.853 69.4278 340.053 69.1342L340.271 68.3794Z" fill="white"/>
<path d="M352.151 69.3118V65.4221C351.278 65.3451 350.468 64.9259 349.894 64.2532C349.319 63.5805 349.023 62.7069 349.069 61.8167V56.4263H349.768V61.7545C349.73 62.1478 349.774 62.5448 349.896 62.9199C350.018 63.295 350.216 63.6399 350.477 63.9326C350.738 64.2252 351.056 64.4591 351.411 64.6191C351.767 64.7791 352.151 64.8618 352.539 64.8618C352.927 64.8618 353.312 64.7791 353.667 64.6191C354.022 64.4591 354.34 64.2252 354.601 63.9326C354.862 63.6399 355.06 63.295 355.182 62.9199C355.304 62.5448 355.348 62.1478 355.31 61.7545V56.4263H356V61.8167C356.049 62.7074 355.754 63.5823 355.178 64.2555C354.603 64.9287 353.793 65.3472 352.919 65.4221V69.3118H352.151Z" fill="white"/>
</svg>
